solid Default
  facet normal 7.637581e-01 6.455025e-01 6.875442e-05
    outer loop
      vertex 3.867736e+00 2.038771e+01 1.159527e+01
      vertex 1.122630e+01 1.168229e+01 5.044846e-02
      vertex 3.868281e+00 2.038829e+01 5.124541e-02
    endloop
  endfacet
  facet normal 7.637581e-01 6.455026e-01 6.860516e-05
    outer loop
      vertex 1.122630e+01 1.168229e+01 5.044846e-02
      vertex 3.867736e+00 2.038771e+01 1.159527e+01
      vertex 1.122576e+01 1.168171e+01 1.159247e+01
    endloop
  endfacet
  facet normal 7.638145e-01 6.454358e-01 6.888000e-05
    outer loop
      vertex 2.306833e+01 1.176829e+01 4.963095e-02
      vertex 1.793177e+01 1.784571e+01 1.159504e+01
      vertex 2.306778e+01 1.176770e+01 1.159366e+01
    endloop
  endfacet
  facet normal 7.638146e-01 6.454358e-01 6.890225e-05
    outer loop
      vertex 1.793177e+01 1.784571e+01 1.159504e+01
      vertex 2.306833e+01 1.176829e+01 4.963095e-02
      vertex 1.793232e+01 1.784629e+01 4.901893e-02
    endloop
  endfacet
  facet normal 7.639000e-01 6.453346e-01 -6.332761e-05
    outer loop
      vertex 1.587431e+01 6.182291e+00 5.005174e-02
      vertex 2.310377e+01 -2.374296e+00 1.159501e+01
      vertex 2.310232e+01 -2.373710e+00 4.898600e-02
    endloop
  endfacet
  facet normal 7.638121e-01 6.454386e-01 6.887378e-05
    outer loop
      vertex 2.310377e+01 -2.374296e+00 1.159501e+01
      vertex 1.587431e+01 6.182291e+00 5.005174e-02
      vertex 1.587376e+01 6.181705e+00 1.159408e+01
    endloop
  endfacet
  facet normal -7.637228e-01 -6.455443e-01 6.360178e-05
    outer loop
      vertex 1.061175e+01 1.705571e+01 1.159344e+01
      vertex 1.351630e+01 1.361829e+01 4.941555e-02
      vertex 1.351776e+01 1.361771e+01 1.159344e+01
    endloop
  endfacet
  facet normal -7.639417e-01 -6.452852e-01 -6.863595e-05
    outer loop
      vertex 1.351630e+01 1.361829e+01 4.941555e-02
      vertex 1.061175e+01 1.705571e+01 1.159344e+01
      vertex 1.061230e+01 1.705629e+01 4.941554e-02
    endloop
  endfacet
  facet normal 6.460005e-01 -7.633370e-01 -8.143609e-06
    outer loop
      vertex 1.587431e+01 6.182291e+00 5.005174e-02
      vertex 1.816377e+01 8.119704e+00 1.159304e+01
      vertex 1.587376e+01 6.181705e+00 1.159408e+01
    endloop
  endfacet
  facet normal 6.460005e-01 -7.633370e-01 -8.143609e-06
    outer loop
      vertex 1.816377e+01 8.119704e+00 1.159304e+01
      vertex 1.587431e+01 6.182291e+00 5.005174e-02
      vertex 1.816432e+01 8.120289e+00 4.901893e-02
    endloop
  endfacet
  facet normal -7.639417e-01 -6.452852e-01 -6.887798e-05
    outer loop
      vertex 1.816377e+01 8.119704e+00 1.159304e+01
      vertex 1.816432e+01 8.120289e+00 4.901893e-02
      vertex 2.106832e+01 4.682290e+00 4.901893e-02
    endloop
  endfacet
  facet normal -7.637224e-01 -6.455449e-01 6.361292e-05
    outer loop
      vertex 2.106832e+01 4.682290e+00 4.901893e-02
      vertex 2.106978e+01 4.681705e+00 1.159305e+01
      vertex 1.816377e+01 8.119704e+00 1.159304e+01
    endloop
  endfacet
  facet normal -6.452842e-01 7.639426e-01 8.441234e-06
    outer loop
      vertex 1.122630e+01 1.168229e+01 5.044846e-02
      vertex 1.122576e+01 1.168171e+01 1.159247e+01
      vertex 1.351776e+01 1.361771e+01 1.159344e+01
    endloop
  endfacet
  facet normal -6.456125e-01 7.636651e-01 1.201824e-04
    outer loop
      vertex 1.351776e+01 1.361771e+01 1.159344e+01
      vertex 1.351630e+01 1.361829e+01 4.941555e-02
      vertex 1.122630e+01 1.168229e+01 5.044846e-02
    endloop
  endfacet
  facet normal 6.395223e-01 -7.686623e-01 -1.301849e-02
    outer loop
      vertex -1.232919e+01 1.119925e+00 7.307846e+00
      vertex -1.206062e+01 1.347940e+00 7.038428e+00
      vertex -1.056603e+01 2.612001e+00 5.823668e+00
    endloop
  endfacet
  facet normal 6.424317e-01 -7.663193e-01 6.032620e-03
    outer loop
      vertex -1.389662e+01 -2.040603e-01 7.038446e+00
      vertex -1.362719e+01 2.392578e-02 7.307031e+00
      vertex -1.546203e+01 -1.525998e+00 5.819048e+00
    endloop
  endfacet
  facet normal -2.155404e-04 -4.495652e-04 9.999999e-01
    outer loop
      vertex -8.431776e+00 -2.393850e+00 2.883945e+00
      vertex -1.178978e+01 1.578150e+00 2.885006e+00
      vertex -1.261978e+01 -2.397850e+00 2.883040e+00
    endloop
  endfacet
  facet normal -1.132443e-03 -2.581597e-04 9.999993e-01
    outer loop
      vertex -1.423378e+01 -4.878498e-01 2.881705e+00
      vertex -1.261978e+01 -2.397850e+00 2.883040e+00
      vertex -1.178978e+01 1.578150e+00 2.885006e+00
    endloop
  endfacet
  facet normal 6.932658e-04 3.515831e-04 -9.999997e-01
    outer loop
      vertex -8.438274e+00 -2.394148e+00 8.761944e+00
      vertex -1.262628e+01 -2.398148e+00 8.759040e+00
      vertex -1.179228e+01 1.573852e+00 8.761014e+00
    endloop
  endfacet
  facet normal 1.362308e-04 4.685435e-04 -9.999999e-01
    outer loop
      vertex -1.423628e+01 -4.921476e-01 8.759713e+00
      vertex -1.179228e+01 1.573852e+00 8.761014e+00
      vertex -1.262628e+01 -2.398148e+00 8.759040e+00
    endloop
  endfacet
  facet normal -1.023136e-01 -8.574010e-02 -9.910502e-01
    outer loop
      vertex -1.264355e+01 8.559169e-01 7.477165e+00
      vertex -1.297968e+01 5.719144e-01 7.536436e+00
      vertex -1.541756e+01 4.139917e+00 7.479433e+00
    endloop
  endfacet
  facet normal -9.826085e-02 -8.298132e-02 -9.916950e-01
    outer loop
      vertex -1.575568e+01 3.855915e+00 7.536700e+00
      vertex -1.541756e+01 4.139917e+00 7.479433e+00
      vertex -1.297968e+01 5.719144e-01 7.536436e+00
    endloop
  endfacet
  facet normal -2.925338e-01 -2.464665e-01 -9.239471e-01
    outer loop
      vertex -1.541756e+01 4.139917e+00 7.479433e+00
      vertex -1.510520e+01 4.403926e+00 7.310111e+00
      vertex -1.264355e+01 8.559169e-01 7.477165e+00
    endloop
  endfacet
  facet normal -2.915094e-01 -2.457796e-01 -9.244537e-01
    outer loop
      vertex -1.232919e+01 1.119925e+00 7.307846e+00
      vertex -1.264355e+01 8.559169e-01 7.477165e+00
      vertex -1.510520e+01 4.403926e+00 7.310111e+00
    endloop
  endfacet
  facet normal -4.663482e-01 -3.936644e-01 -7.921791e-01
    outer loop
      vertex -1.510520e+01 4.403926e+00 7.310111e+00
      vertex -1.483662e+01 4.631940e+00 7.038693e+00
      vertex -1.232919e+01 1.119925e+00 7.307846e+00
    endloop
  endfacet
  facet normal -4.639491e-01 -3.921180e-01 -7.943518e-01
    outer loop
      vertex -1.206062e+01 1.347940e+00 7.038428e+00
      vertex -1.232919e+01 1.119925e+00 7.307846e+00
      vertex -1.483662e+01 4.631940e+00 7.038693e+00
    endloop
  endfacet
  facet normal -6.055120e-01 -5.117977e-01 -6.094410e-01
    outer loop
      vertex -1.483662e+01 4.631940e+00 7.038693e+00
      vertex -1.462987e+01 4.805958e+00 6.687140e+00
      vertex -1.206062e+01 1.347940e+00 7.038428e+00
    endloop
  endfacet
  facet normal -6.069635e-01 -5.126559e-01 -6.072720e-01
    outer loop
      vertex -1.185386e+01 1.521957e+00 6.684876e+00
      vertex -1.206062e+01 1.347940e+00 7.038428e+00
      vertex -1.462987e+01 4.805958e+00 6.687140e+00
    endloop
  endfacet
  facet normal -7.058616e-01 -5.964109e-01 -3.821693e-01
    outer loop
      vertex -1.462987e+01 4.805958e+00 6.687140e+00
      vertex -1.172499e+01 1.631977e+00 6.275155e+00
      vertex -1.185386e+01 1.521957e+00 6.684876e+00
    endloop
  endfacet
  facet normal -7.058616e-01 -5.964109e-01 -3.821693e-01
    outer loop
      vertex -1.172499e+01 1.631977e+00 6.275155e+00
      vertex -1.462987e+01 4.805958e+00 6.687140e+00
      vertex -1.450100e+01 4.915978e+00 6.277419e+00
    endloop
  endfacet
  facet normal -7.570012e-01 -6.398120e-01 -1.326274e-01
    outer loop
      vertex -1.450100e+01 4.915978e+00 6.277419e+00
      vertex -1.168006e+01 1.670000e+00 5.835251e+00
      vertex -1.172499e+01 1.631977e+00 6.275155e+00
    endloop
  endfacet
  facet normal -7.570211e-01 -6.399086e-01 -1.320449e-01
    outer loop
      vertex -1.168006e+01 1.670000e+00 5.835251e+00
      vertex -1.450100e+01 4.915978e+00 6.277419e+00
      vertex -1.445606e+01 4.954001e+00 5.835515e+00
    endloop
  endfacet
  facet normal -7.569011e-01 -6.399104e-01 1.327232e-01
    outer loop
      vertex -1.172512e+01 1.632022e+00 5.395152e+00
      vertex -1.168006e+01 1.670000e+00 5.835251e+00
      vertex -1.450113e+01 4.916023e+00 5.397416e+00
    endloop
  endfacet
  facet normal -7.568795e-01 -6.398103e-01 1.333273e-01
    outer loop
      vertex -1.445606e+01 4.954001e+00 5.835515e+00
      vertex -1.450113e+01 4.916023e+00 5.397416e+00
      vertex -1.168006e+01 1.670000e+00 5.835251e+00
    endloop
  endfacet
  facet normal -7.056395e-01 -5.967502e-01 3.820498e-01
    outer loop
      vertex -1.185425e+01 1.522044e+00 4.984871e+00
      vertex -1.172512e+01 1.632022e+00 5.395152e+00
      vertex -1.463026e+01 4.806044e+00 4.987136e+00
    endloop
  endfacet
  facet normal -7.056399e-01 -5.967507e-01 3.820484e-01
    outer loop
      vertex -1.450113e+01 4.916023e+00 5.397416e+00
      vertex -1.463026e+01 4.806044e+00 4.987136e+00
      vertex -1.172512e+01 1.632022e+00 5.395152e+00
    endloop
  endfacet
  facet normal -6.042689e-01 -5.112181e-01 6.111589e-01
    outer loop
      vertex -1.185425e+01 1.522044e+00 4.984871e+00
      vertex -1.463026e+01 4.806044e+00 4.987136e+00
      vertex -1.206150e+01 1.348061e+00 4.634421e+00
    endloop
  endfacet
  facet normal -6.057369e-01 -5.120859e-01 6.089752e-01
    outer loop
      vertex -1.483751e+01 4.632062e+00 4.634685e+00
      vertex -1.206150e+01 1.348061e+00 4.634421e+00
      vertex -1.463026e+01 4.806044e+00 4.987136e+00
    endloop
  endfacet
  facet normal -4.646252e-01 -3.928172e-01 7.936108e-01
    outer loop
      vertex -1.206150e+01 1.348061e+00 4.634421e+00
      vertex -1.483751e+01 4.632062e+00 4.634685e+00
      vertex -1.233093e+01 1.120074e+00 4.363836e+00
    endloop
  endfacet
  facet normal -4.672239e-01 -3.944901e-01 7.912518e-01
    outer loop
      vertex -1.510494e+01 4.406076e+00 4.364104e+00
      vertex -1.233093e+01 1.120074e+00 4.363836e+00
      vertex -1.483751e+01 4.632062e+00 4.634685e+00
    endloop
  endfacet
  facet normal -2.945934e-01 -2.487680e-01 9.226750e-01
    outer loop
      vertex -1.233093e+01 1.120074e+00 4.363836e+00
      vertex -1.510494e+01 4.406076e+00 4.364104e+00
      vertex -1.264257e+01 8.560834e-01 4.193159e+00
    endloop
  endfacet
  facet normal -2.895015e-01 -2.453575e-01 9.251965e-01
    outer loop
      vertex -1.541858e+01 4.140084e+00 4.195424e+00
      vertex -1.264257e+01 8.560834e-01 4.193159e+00
      vertex -1.510494e+01 4.406076e+00 4.364104e+00
    endloop
  endfacet
  facet normal -1.010633e-01 -8.544953e-02 9.912036e-01
    outer loop
      vertex -1.575445e+01 3.856087e+00 4.136695e+00
      vertex -1.298045e+01 5.720868e-01 4.136427e+00
      vertex -1.541858e+01 4.140084e+00 4.195424e+00
    endloop
  endfacet
  facet normal -9.702584e-02 -8.270115e-02 9.918399e-01
    outer loop
      vertex -1.264257e+01 8.560834e-01 4.193159e+00
      vertex -1.541858e+01 4.140084e+00 4.195424e+00
      vertex -1.298045e+01 5.720868e-01 4.136427e+00
    endloop
  endfacet
  facet normal 9.897870e-02 8.352659e-02 9.915778e-01
    outer loop
      vertex -1.298045e+01 5.720868e-01 4.136427e+00
      vertex -1.575445e+01 3.856087e+00 4.136695e+00
      vertex -1.331457e+01 2.880836e-01 4.193702e+00
    endloop
  endfacet
  facet normal 9.860345e-02 8.327091e-02 9.916367e-01
    outer loop
      vertex -1.609058e+01 3.572084e+00 4.193966e+00
      vertex -1.331457e+01 2.880836e-01 4.193702e+00
      vertex -1.575445e+01 3.856087e+00 4.136695e+00
    endloop
  endfacet
  facet normal 2.912337e-01 2.461091e-01 9.244529e-01
    outer loop
      vertex -1.331457e+01 2.880836e-01 4.193702e+00
      vertex -1.609058e+01 3.572084e+00 4.193966e+00
      vertex -1.362893e+01 2.407509e-02 4.363021e+00
    endloop
  endfacet
  facet normal 2.944392e-01 2.482572e-01 9.228618e-01
    outer loop
      vertex -1.640494e+01 3.308076e+00 4.365285e+00
      vertex -1.362893e+01 2.407509e-02 4.363021e+00
      vertex -1.609058e+01 3.572084e+00 4.193966e+00
    endloop
  endfacet
  facet normal 4.663481e-01 3.936642e-01 7.921793e-01
    outer loop
      vertex -1.362893e+01 2.407509e-02 4.363021e+00
      vertex -1.640494e+01 3.308076e+00 4.365285e+00
      vertex -1.389751e+01 -2.039383e-01 4.634439e+00
    endloop
  endfacet
  facet normal 4.639493e-01 3.921181e-01 7.943517e-01
    outer loop
      vertex -1.667352e+01 3.080062e+00 4.634703e+00
      vertex -1.389751e+01 -2.039383e-01 4.634439e+00
      vertex -1.640494e+01 3.308076e+00 4.365285e+00
    endloop
  endfacet
  facet normal 6.055127e-01 5.117984e-01 6.094398e-01
    outer loop
      vertex -1.389751e+01 -2.039383e-01 4.634439e+00
      vertex -1.667352e+01 3.080062e+00 4.634703e+00
      vertex -1.410426e+01 -3.779559e-01 4.985991e+00
    endloop
  endfacet
  facet normal 6.069686e-01 5.126590e-01 6.072642e-01
    outer loop
      vertex -1.687826e+01 2.906044e+00 4.986259e+00
      vertex -1.410426e+01 -3.779559e-01 4.985991e+00
      vertex -1.667352e+01 3.080062e+00 4.634703e+00
    endloop
  endfacet
  facet normal 7.080528e-01 5.982680e-01 3.751489e-01
    outer loop
      vertex -1.423516e+01 -4.899779e-01 5.411708e+00
      vertex -1.410426e+01 -3.779559e-01 4.985991e+00
      vertex -1.701117e+01 2.794022e+00 5.413972e+00
    endloop
  endfacet
  facet normal 7.077368e-01 5.977970e-01 3.764934e-01
    outer loop
      vertex -1.687826e+01 2.906044e+00 4.986259e+00
      vertex -1.701117e+01 2.794022e+00 5.413972e+00
      vertex -1.410426e+01 -3.779559e-01 4.985991e+00
    endloop
  endfacet
  facet normal 7.575842e-01 6.394549e-01 1.310103e-01
    outer loop
      vertex -1.427806e+01 -5.259997e-01 5.835616e+00
      vertex -1.423516e+01 -4.899779e-01 5.411708e+00
      vertex -1.705207e+01 2.760001e+00 5.837885e+00
    endloop
  endfacet
  facet normal 7.578009e-01 6.404938e-01 1.245209e-01
    outer loop
      vertex -1.701117e+01 2.794022e+00 5.413972e+00
      vertex -1.705207e+01 2.760001e+00 5.837885e+00
      vertex -1.423516e+01 -4.899779e-01 5.411708e+00
    endloop
  endfacet
  facet normal 7.572807e-01 6.393809e-01 -1.331088e-01
    outer loop
      vertex -1.427806e+01 -5.259997e-01 5.835616e+00
      vertex -1.705207e+01 2.760001e+00 5.837885e+00
      vertex -1.423495e+01 -4.900206e-01 6.253710e+00
    endloop
  endfacet
  facet normal 7.575208e-01 6.404300e-01 -1.265367e-01
    outer loop
      vertex -1.701096e+01 2.793980e+00 6.255974e+00
      vertex -1.423495e+01 -4.900206e-01 6.253710e+00
      vertex -1.705207e+01 2.760001e+00 5.837885e+00
    endloop
  endfacet
  facet normal 7.089034e-01 5.992749e-01 -3.719213e-01
    outer loop
      vertex -1.687988e+01 2.905958e+00 6.686260e+00
      vertex -1.410387e+01 -3.780422e-01 6.685996e+00
      vertex -1.701096e+01 2.793980e+00 6.255974e+00
    endloop
  endfacet
  facet normal 7.092463e-01 5.997910e-01 -3.704326e-01
    outer loop
      vertex -1.423495e+01 -4.900206e-01 6.253710e+00
      vertex -1.701096e+01 2.793980e+00 6.255974e+00
      vertex -1.410387e+01 -3.780422e-01 6.685996e+00
    endloop
  endfacet
  facet normal 6.057370e-01 5.120861e-01 -6.089751e-01
    outer loop
      vertex -1.389662e+01 -2.040603e-01 7.038446e+00
      vertex -1.410387e+01 -3.780422e-01 6.685996e+00
      vertex -1.667263e+01 3.079940e+00 7.038710e+00
    endloop
  endfacet
  facet normal 6.057364e-01 5.120857e-01 -6.089758e-01
    outer loop
      vertex -1.687988e+01 2.905958e+00 6.686260e+00
      vertex -1.667263e+01 3.079940e+00 7.038710e+00
      vertex -1.410387e+01 -3.780422e-01 6.685996e+00
    endloop
  endfacet
  facet normal 4.622120e-01 3.912627e-01 -7.957850e-01
    outer loop
      vertex -1.362719e+01 2.392578e-02 7.307031e+00
      vertex -1.389662e+01 -2.040603e-01 7.038446e+00
      vertex -1.640320e+01 3.307926e+00 7.309295e+00
    endloop
  endfacet
  facet normal 4.646260e-01 3.928180e-01 -7.936101e-01
    outer loop
      vertex -1.667263e+01 3.079940e+00 7.038710e+00
      vertex -1.640320e+01 3.307926e+00 7.309295e+00
      vertex -1.389662e+01 -2.040603e-01 7.038446e+00
    endloop
  endfacet
  facet normal 2.942406e-01 2.491838e-01 -9.226754e-01
    outer loop
      vertex -1.331555e+01 2.879170e-01 7.477707e+00
      vertex -1.362719e+01 2.392578e-02 7.307031e+00
      vertex -1.608956e+01 3.571918e+00 7.479976e+00
    endloop
  endfacet
  facet normal 2.932248e-01 2.485034e-01 -9.231821e-01
    outer loop
      vertex -1.640320e+01 3.307926e+00 7.309295e+00
      vertex -1.608956e+01 3.571918e+00 7.479976e+00
      vertex -1.362719e+01 2.392578e-02 7.307031e+00
    endloop
  endfacet
  facet normal 1.010337e-01 8.548469e-02 -9.912036e-01
    outer loop
      vertex -1.297968e+01 5.719144e-01 7.536436e+00
      vertex -1.331555e+01 2.879170e-01 7.477707e+00
      vertex -1.575568e+01 3.855915e+00 7.536700e+00
    endloop
  endfacet
  facet normal 9.770524e-02 8.321711e-02 -9.917301e-01
    outer loop
      vertex -1.608956e+01 3.571918e+00 7.479976e+00
      vertex -1.575568e+01 3.855915e+00 7.536700e+00
      vertex -1.331555e+01 2.879170e-01 7.477707e+00
    endloop
  endfacet
  facet normal 8.654642e-04 -9.999995e-01 -3.787068e-04
    outer loop
      vertex -1.262628e+01 -2.398148e+00 8.759040e+00
      vertex -2.705684e-04 -2.388293e+00 1.159189e+01
      vertex -1.155230e+01 -2.398292e+00 1.159333e+01
    endloop
  endfacet
  facet normal 5.725151e-04 -9.999998e-01 -5.068983e-05
    outer loop
      vertex -1.262628e+01 -2.398148e+00 8.759040e+00
      vertex -2.310432e+01 -2.404290e+00 1.159277e+01
      vertex -2.310378e+01 -2.403705e+00 4.874255e-02
    endloop
  endfacet
  facet normal 9.555373e-04 -9.999992e-01 -7.801631e-04
    outer loop
      vertex -2.705684e-04 -2.388293e+00 1.159189e+01
      vertex -1.262628e+01 -2.398148e+00 8.759040e+00
      vertex -8.438274e+00 -2.394148e+00 8.761944e+00
    endloop
  endfacet
  facet normal 1.405228e-03 -9.999985e-01 -1.052350e-03
    outer loop
      vertex -1.262628e+01 -2.398148e+00 8.759040e+00
      vertex -2.310378e+01 -2.403705e+00 4.874255e-02
      vertex -1.472203e+01 -2.397998e+00 5.818577e+00
    endloop
  endfacet
  facet normal 4.793543e-04 -9.999998e-01 2.926536e-04
    outer loop
      vertex -1.472203e+01 -2.397998e+00 5.818577e+00
      vertex -2.310378e+01 -2.403705e+00 4.874255e-02
      vertex -1.261978e+01 -2.397850e+00 2.883040e+00
    endloop
  endfacet
  facet normal 7.109252e-04 -9.999998e-01 -5.080650e-05
    outer loop
      vertex -8.438274e+00 -2.394148e+00 8.761944e+00
      vertex -1.726987e-03 -2.387707e+00 4.786203e-02
      vertex -2.705684e-04 -2.388293e+00 1.159189e+01
    endloop
  endfacet
  facet normal 2.723438e-03 -9.999945e-01 1.897614e-03
    outer loop
      vertex -1.726987e-03 -2.387707e+00 4.786203e-02
      vertex -8.438274e+00 -2.394148e+00 8.761944e+00
      vertex -6.334015e+00 -2.393999e+00 5.820412e+00
    endloop
  endfacet
  facet normal 5.736643e-04 -9.999997e-01 -4.606197e-04
    outer loop
      vertex -1.726987e-03 -2.387707e+00 4.786203e-02
      vertex -6.334015e+00 -2.393999e+00 5.820412e+00
      vertex -8.431776e+00 -2.393850e+00 2.883945e+00
    endloop
  endfacet
  facet normal 9.548737e-04 -9.999993e-01 6.724992e-04
    outer loop
      vertex -1.726987e-03 -2.387707e+00 4.786203e-02
      vertex -8.431776e+00 -2.393850e+00 2.883945e+00
      vertex -1.261978e+01 -2.397850e+00 2.883040e+00
    endloop
  endfacet
  facet normal 5.192616e-04 -9.999999e-01 1.450374e-04
    outer loop
      vertex -1.261978e+01 -2.397850e+00 2.883040e+00
      vertex -2.310378e+01 -2.403705e+00 4.874255e-02
      vertex -1.155176e+01 -2.397706e+00 4.930424e-02
    endloop
  endfacet
  facet normal 6.455773e-01 -7.636949e-01 2.993659e-05
    outer loop
      vertex -1.423628e+01 -4.921476e-01 8.759713e+00
      vertex -1.232919e+01 1.119925e+00 7.307846e+00
      vertex -1.179228e+01 1.573852e+00 8.761014e+00
    endloop
  endfacet
  facet normal 6.458999e-01 -7.634221e-01 -1.743793e-04
    outer loop
      vertex -1.056603e+01 2.612001e+00 5.823668e+00
      vertex -1.179228e+01 1.573852e+00 8.761014e+00
      vertex -1.232919e+01 1.119925e+00 7.307846e+00
    endloop
  endfacet
  facet normal 6.369910e-01 -7.706381e-01 -1.895805e-02
    outer loop
      vertex -1.264355e+01 8.559169e-01 7.477165e+00
      vertex -1.232919e+01 1.119925e+00 7.307846e+00
      vertex -1.423628e+01 -4.921476e-01 8.759713e+00
    endloop
  endfacet
  facet normal 6.452116e-01 -7.640018e-01 -1.774013e-03
    outer loop
      vertex -1.297968e+01 5.719144e-01 7.536436e+00
      vertex -1.264355e+01 8.559169e-01 7.477165e+00
      vertex -1.423628e+01 -4.921476e-01 8.759713e+00
    endloop
  endfacet
  facet normal 6.455931e-01 -7.636814e-01 -6.134728e-04
    outer loop
      vertex -1.546203e+01 -1.525998e+00 5.819048e+00
      vertex -1.362719e+01 2.392578e-02 7.307031e+00
      vertex -1.423628e+01 -4.921476e-01 8.759713e+00
    endloop
  endfacet
  facet normal 6.463813e-01 -7.630147e-01 -4.619594e-05
    outer loop
      vertex -1.331555e+01 2.879170e-01 7.477707e+00
      vertex -1.423628e+01 -4.921476e-01 8.759713e+00
      vertex -1.362719e+01 2.392578e-02 7.307031e+00
    endloop
  endfacet
  facet normal 6.457540e-01 -7.635450e-01 -8.194611e-04
    outer loop
      vertex -1.297968e+01 5.719144e-01 7.536436e+00
      vertex -1.423628e+01 -4.921476e-01 8.759713e+00
      vertex -1.331555e+01 2.879170e-01 7.477707e+00
    endloop
  endfacet
  facet normal -6.702887e-01 -5.669659e-01 4.788139e-01
    outer loop
      vertex -6.334015e+00 -2.393999e+00 5.820412e+00
      vertex -1.056603e+01 2.612001e+00 5.823668e+00
      vertex -8.431776e+00 -2.393850e+00 2.883945e+00
    endloop
  endfacet
  facet normal -6.704390e-01 -5.669308e-01 4.786451e-01
    outer loop
      vertex -1.178978e+01 1.578150e+00 2.885006e+00
      vertex -8.431776e+00 -2.393850e+00 2.883945e+00
      vertex -1.056603e+01 2.612001e+00 5.823668e+00
    endloop
  endfacet
  facet normal 6.692857e-01 5.677152e-01 4.793288e-01
    outer loop
      vertex -1.472203e+01 -2.397998e+00 5.818577e+00
      vertex -1.261978e+01 -2.397850e+00 2.883040e+00
      vertex -1.546203e+01 -1.525998e+00 5.819048e+00
    endloop
  endfacet
  facet normal 6.698021e-01 5.663360e-01 4.802382e-01
    outer loop
      vertex -1.423378e+01 -4.878498e-01 2.881705e+00
      vertex -1.546203e+01 -1.525998e+00 5.819048e+00
      vertex -1.261978e+01 -2.397850e+00 2.883040e+00
    endloop
  endfacet
  facet normal 6.708734e-01 5.668582e-01 -4.781221e-01
    outer loop
      vertex -1.262628e+01 -2.398148e+00 8.759040e+00
      vertex -1.472203e+01 -2.397998e+00 5.818577e+00
      vertex -1.423628e+01 -4.921476e-01 8.759713e+00
    endloop
  endfacet
  facet normal 6.692744e-01 5.682230e-01 -4.787425e-01
    outer loop
      vertex -1.546203e+01 -1.525998e+00 5.819048e+00
      vertex -1.423628e+01 -4.921476e-01 8.759713e+00
      vertex -1.472203e+01 -2.397998e+00 5.818577e+00
    endloop
  endfacet
  facet normal -6.701671e-01 -5.665801e-01 -4.794406e-01
    outer loop
      vertex -8.438274e+00 -2.394148e+00 8.761944e+00
      vertex -1.179228e+01 1.573852e+00 8.761014e+00
      vertex -6.334015e+00 -2.393999e+00 5.820412e+00
    endloop
  endfacet
  facet normal -6.701486e-01 -5.662240e-01 -4.798867e-01
    outer loop
      vertex -1.056603e+01 2.612001e+00 5.823668e+00
      vertex -6.334015e+00 -2.393999e+00 5.820412e+00
      vertex -1.179228e+01 1.573852e+00 8.761014e+00
    endloop
  endfacet
  facet normal 6.474070e-01 -7.621366e-01 3.472635e-03
    outer loop
      vertex -1.206062e+01 1.347940e+00 7.038428e+00
      vertex -1.185386e+01 1.521957e+00 6.684876e+00
      vertex -1.056603e+01 2.612001e+00 5.823668e+00
    endloop
  endfacet
  facet normal 6.451908e-01 -7.640182e-01 -2.222910e-03
    outer loop
      vertex -1.172499e+01 1.631977e+00 6.275155e+00
      vertex -1.056603e+01 2.612001e+00 5.823668e+00
      vertex -1.185386e+01 1.521957e+00 6.684876e+00
    endloop
  endfacet
  facet normal 6.456871e-01 -7.636022e-01 -4.543363e-05
    outer loop
      vertex -1.168006e+01 1.670000e+00 5.835251e+00
      vertex -1.056603e+01 2.612001e+00 5.823668e+00
      vertex -1.172499e+01 1.631977e+00 6.275155e+00
    endloop
  endfacet
  facet normal 6.456860e-01 -7.636031e-01 -2.208385e-04
    outer loop
      vertex -1.172512e+01 1.632022e+00 5.395152e+00
      vertex -1.056603e+01 2.612001e+00 5.823668e+00
      vertex -1.168006e+01 1.670000e+00 5.835251e+00
    endloop
  endfacet
  facet normal 6.456913e-01 -7.635986e-01 -2.453381e-04
    outer loop
      vertex -1.178978e+01 1.578150e+00 2.885006e+00
      vertex -1.056603e+01 2.612001e+00 5.823668e+00
      vertex -1.172512e+01 1.632022e+00 5.395152e+00
    endloop
  endfacet
  facet normal 6.491310e-01 -7.606766e-01 -3.966605e-04
    outer loop
      vertex -1.185425e+01 1.522044e+00 4.984871e+00
      vertex -1.178978e+01 1.578150e+00 2.885006e+00
      vertex -1.172512e+01 1.632022e+00 5.395152e+00
    endloop
  endfacet
  facet normal 6.436318e-01 -7.653350e-01 -6.899516e-04
    outer loop
      vertex -1.206150e+01 1.348061e+00 4.634421e+00
      vertex -1.178978e+01 1.578150e+00 2.885006e+00
      vertex -1.185425e+01 1.522044e+00 4.984871e+00
    endloop
  endfacet
  facet normal 6.459961e-01 -7.633407e-01 -6.044125e-05
    outer loop
      vertex -1.233093e+01 1.120074e+00 4.363836e+00
      vertex -1.178978e+01 1.578150e+00 2.885006e+00
      vertex -1.206150e+01 1.348061e+00 4.634421e+00
    endloop
  endfacet
  facet normal 6.463218e-01 -7.630650e-01 1.440886e-04
    outer loop
      vertex -1.264257e+01 8.560834e-01 4.193159e+00
      vertex -1.178978e+01 1.578150e+00 2.885006e+00
      vertex -1.233093e+01 1.120074e+00 4.363836e+00
    endloop
  endfacet
  facet normal 6.436986e-01 -7.652740e-01 -2.785294e-03
    outer loop
      vertex -1.298045e+01 5.720868e-01 4.136427e+00
      vertex -1.178978e+01 1.578150e+00 2.885006e+00
      vertex -1.264257e+01 8.560834e-01 4.193159e+00
    endloop
  endfacet
  facet normal 6.470616e-01 -7.624266e-01 -4.130960e-03
    outer loop
      vertex -1.389662e+01 -2.040603e-01 7.038446e+00
      vertex -1.546203e+01 -1.525998e+00 5.819048e+00
      vertex -1.410387e+01 -3.780422e-01 6.685996e+00
    endloop
  endfacet
  facet normal 6.445600e-01 -7.645493e-01 2.598801e-03
    outer loop
      vertex -1.423495e+01 -4.900206e-01 6.253710e+00
      vertex -1.410387e+01 -3.780422e-01 6.685996e+00
      vertex -1.546203e+01 -1.525998e+00 5.819048e+00
    endloop
  endfacet
  facet normal 6.452638e-01 -7.639595e-01 -7.939553e-04
    outer loop
      vertex -1.427806e+01 -5.259997e-01 5.835616e+00
      vertex -1.423495e+01 -4.900206e-01 6.253710e+00
      vertex -1.546203e+01 -1.525998e+00 5.819048e+00
    endloop
  endfacet
  facet normal 6.452543e-01 -7.639678e-01 3.853666e-04
    outer loop
      vertex -1.423516e+01 -4.899779e-01 5.411708e+00
      vertex -1.427806e+01 -5.259997e-01 5.835616e+00
      vertex -1.546203e+01 -1.525998e+00 5.819048e+00
    endloop
  endfacet
  facet normal 6.451231e-01 -7.640785e-01 -2.912062e-04
    outer loop
      vertex -1.423378e+01 -4.878498e-01 2.881705e+00
      vertex -1.423516e+01 -4.899779e-01 5.411708e+00
      vertex -1.546203e+01 -1.525998e+00 5.819048e+00
    endloop
  endfacet
  facet normal 6.496435e-01 -7.602389e-01 -2.855136e-04
    outer loop
      vertex -1.410426e+01 -3.779559e-01 4.985991e+00
      vertex -1.423516e+01 -4.899779e-01 5.411708e+00
      vertex -1.423378e+01 -4.878498e-01 2.881705e+00
    endloop
  endfacet
  facet normal 6.442362e-01 -7.648265e-01 2.869095e-04
    outer loop
      vertex -1.389751e+01 -2.039383e-01 4.634439e+00
      vertex -1.410426e+01 -3.779559e-01 4.985991e+00
      vertex -1.423378e+01 -4.878498e-01 2.881705e+00
    endloop
  endfacet
  facet normal 6.468530e-01 -7.626144e-01 -5.734376e-04
    outer loop
      vertex -1.362893e+01 2.407509e-02 4.363021e+00
      vertex -1.389751e+01 -2.039383e-01 4.634439e+00
      vertex -1.423378e+01 -4.878498e-01 2.881705e+00
    endloop
  endfacet
  facet normal 6.436428e-01 -7.653242e-01 1.673829e-03
    outer loop
      vertex -1.331457e+01 2.880836e-01 4.193702e+00
      vertex -1.362893e+01 2.407509e-02 4.363021e+00
      vertex -1.423378e+01 -4.878498e-01 2.881705e+00
    endloop
  endfacet
  facet normal 6.473656e-01 -7.621745e-01 -2.797228e-03
    outer loop
      vertex -1.298045e+01 5.720868e-01 4.136427e+00
      vertex -1.331457e+01 2.880836e-01 4.193702e+00
      vertex -1.423378e+01 -4.878498e-01 2.881705e+00
    endloop
  endfacet
  facet normal 6.455777e-01 -7.636945e-01 2.725809e-04
    outer loop
      vertex -1.178978e+01 1.578150e+00 2.885006e+00
      vertex -1.298045e+01 5.720868e-01 4.136427e+00
      vertex -1.423378e+01 -4.878498e-01 2.881705e+00
    endloop
  endfacet
  facet normal -6.460959e-01 7.632226e-01 -7.153927e-03
    outer loop
      vertex -1.575445e+01 3.856087e+00 4.136695e+00
      vertex -2.310378e+01 -2.403705e+00 4.874255e-02
      vertex -1.609058e+01 3.572084e+00 4.193966e+00
    endloop
  endfacet
  facet normal -6.454653e-01 7.637319e-01 -9.382770e-03
    outer loop
      vertex -9.617751e+00 8.992294e+00 4.999422e-02
      vertex -1.575445e+01 3.856087e+00 4.136695e+00
      vertex -5.944088e+00 1.212219e+01 2.093968e+00
    endloop
  endfacet
  facet normal -6.457173e-01 7.635321e-01 -8.241920e-03
    outer loop
      vertex -2.310378e+01 -2.403705e+00 4.874255e-02
      vertex -1.640494e+01 3.308076e+00 4.365285e+00
      vertex -1.609058e+01 3.572084e+00 4.193966e+00
    endloop
  endfacet
  facet normal -6.481844e-01 7.614816e-01 -1.698214e-03
    outer loop
      vertex -2.310378e+01 -2.403705e+00 4.874255e-02
      vertex -1.667352e+01 3.080062e+00 4.634703e+00
      vertex -1.640494e+01 3.308076e+00 4.365285e+00
    endloop
  endfacet
  facet normal -6.488903e-01 7.608821e-01 7.980165e-06
    outer loop
      vertex -2.310378e+01 -2.403705e+00 4.874255e-02
      vertex -2.310432e+01 -2.404290e+00 1.159277e+01
      vertex -1.667352e+01 3.080062e+00 4.634703e+00
    endloop
  endfacet
  facet normal -6.511100e-01 7.589751e-01 -3.548022e-03
    outer loop
      vertex -1.687826e+01 2.906044e+00 4.986259e+00
      vertex -2.310432e+01 -2.404290e+00 1.159277e+01
      vertex -1.701117e+01 2.794022e+00 5.413972e+00
    endloop
  endfacet
  facet normal -6.500503e-01 7.598892e-01 -1.734052e-03
    outer loop
      vertex -1.701117e+01 2.794022e+00 5.413972e+00
      vertex -2.310432e+01 -2.404290e+00 1.159277e+01
      vertex -1.705207e+01 2.760001e+00 5.837885e+00
    endloop
  endfacet
  facet normal -6.480876e-01 7.615636e-01 1.832651e-03
    outer loop
      vertex -1.705207e+01 2.760001e+00 5.837885e+00
      vertex -2.310432e+01 -2.404290e+00 1.159277e+01
      vertex -1.701096e+01 2.793980e+00 6.255974e+00
    endloop
  endfacet
  facet normal -6.491230e-01 7.606834e-01 -2.068114e-04
    outer loop
      vertex -1.701096e+01 2.793980e+00 6.255974e+00
      vertex -2.310432e+01 -2.404290e+00 1.159277e+01
      vertex -1.687988e+01 2.905958e+00 6.686260e+00
    endloop
  endfacet
  facet normal -6.471134e-01 7.623822e-01 4.181248e-03
    outer loop
      vertex -1.687988e+01 2.905958e+00 6.686260e+00
      vertex -2.310432e+01 -2.404290e+00 1.159277e+01
      vertex -1.667263e+01 3.079940e+00 7.038710e+00
    endloop
  endfacet
  facet normal -6.476467e-01 7.619352e-01 2.889744e-03
    outer loop
      vertex -1.667263e+01 3.079940e+00 7.038710e+00
      vertex -2.310432e+01 -2.404290e+00 1.159277e+01
      vertex -1.640320e+01 3.307926e+00 7.309295e+00
    endloop
  endfacet
  facet normal -6.461414e-01 7.631864e-01 6.913227e-03
    outer loop
      vertex -1.640320e+01 3.307926e+00 7.309295e+00
      vertex -2.310432e+01 -2.404290e+00 1.159277e+01
      vertex -1.608956e+01 3.571918e+00 7.479976e+00
    endloop
  endfacet
  facet normal -6.480456e-01 7.616003e-01 1.360393e-03
    outer loop
      vertex -1.608956e+01 3.571918e+00 7.479976e+00
      vertex -2.310432e+01 -2.404290e+00 1.159277e+01
      vertex -1.575568e+01 3.855915e+00 7.536700e+00
    endloop
  endfacet
  facet normal -6.442217e-01 7.648388e-01 2.316164e-04
    outer loop
      vertex -5.774420e+00 1.226390e+01 7.894349e+00
      vertex 3.868281e+00 2.038829e+01 5.124541e-02
      vertex -5.776147e+00 1.226419e+01 2.122333e+00
    endloop
  endfacet
  facet normal -6.450576e-01 7.641113e-01 -5.889343e-03
    outer loop
      vertex -1.541858e+01 4.140084e+00 4.195424e+00
      vertex -5.944088e+00 1.212219e+01 2.093968e+00
      vertex -1.575445e+01 3.856087e+00 4.136695e+00
    endloop
  endfacet
  facet normal -6.454702e-01 7.637638e-01 5.759845e-03
    outer loop
      vertex -5.618603e+00 1.239789e+01 7.980688e+00
      vertex -1.483751e+01 4.632062e+00 4.634685e+00
      vertex -5.484888e+00 1.250988e+01 8.114978e+00
    endloop
  endfacet
  facet normal -6.445827e-01 7.645329e-01 1.633581e-03
    outer loop
      vertex -1.463026e+01 4.806044e+00 4.987136e+00
      vertex -5.484888e+00 1.250988e+01 8.114978e+00
      vertex -1.483751e+01 4.632062e+00 4.634685e+00
    endloop
  endfacet
  facet normal -6.437635e-01 7.652203e-01 -2.512165e-03
    outer loop
      vertex -1.450113e+01 4.916023e+00 5.397416e+00
      vertex -5.381262e+00 1.259787e+01 8.291203e+00
      vertex -1.463026e+01 4.806044e+00 4.987136e+00
    endloop
  endfacet
  facet normal -6.430237e-01 7.658174e-01 -6.647683e-03
    outer loop
      vertex -1.445606e+01 4.954001e+00 5.835515e+00
      vertex -5.294164e+00 1.267185e+01 8.715393e+00
      vertex -5.315696e+00 1.265187e+01 8.495345e+00
    endloop
  endfacet
  facet normal -6.441638e-01 7.648876e-01 -3.884563e-05
    outer loop
      vertex -5.315696e+00 1.265187e+01 8.495345e+00
      vertex -1.450113e+01 4.916023e+00 5.397416e+00
      vertex -1.445606e+01 4.954001e+00 5.835515e+00
    endloop
  endfacet
  facet normal -6.443124e-01 7.647623e-01 2.788006e-04
    outer loop
      vertex -1.450100e+01 4.915978e+00 6.277419e+00
      vertex -5.294164e+00 1.267185e+01 8.715393e+00
      vertex -1.445606e+01 4.954001e+00 5.835515e+00
    endloop
  endfacet
  facet normal -6.446858e-01 7.644435e-01 2.495926e-03
    outer loop
      vertex -1.450100e+01 4.915978e+00 6.277419e+00
      vertex -1.462987e+01 4.805958e+00 6.687140e+00
      vertex -5.381071e+00 1.259783e+01 9.141206e+00
    endloop
  endfacet
  facet normal -6.453145e-01 7.638882e-01 6.631046e-03
    outer loop
      vertex -1.462987e+01 4.805958e+00 6.687140e+00
      vertex -5.483443e+00 1.250982e+01 9.316985e+00
      vertex -5.381071e+00 1.259783e+01 9.141206e+00
    endloop
  endfacet
  facet normal -6.441762e-01 7.648771e-01 -2.271131e-04
    outer loop
      vertex -5.483443e+00 1.250982e+01 9.316985e+00
      vertex -1.462987e+01 4.805958e+00 6.687140e+00
      vertex -1.483662e+01 4.631940e+00 7.038693e+00
    endloop
  endfacet
  facet normal -6.447846e-01 7.643535e-01 4.085963e-03
    outer loop
      vertex -1.483662e+01 4.631940e+00 7.038693e+00
      vertex -1.510520e+01 4.403926e+00 7.310111e+00
      vertex -5.617729e+00 1.239582e+01 9.450693e+00
    endloop
  endfacet
  facet normal -6.446217e-01 7.644964e-01 2.828053e-03
    outer loop
      vertex -1.510520e+01 4.403926e+00 7.310111e+00
      vertex -1.541756e+01 4.139917e+00 7.479433e+00
      vertex -5.773912e+00 1.226381e+01 9.536354e+00
    endloop
  endfacet
  facet normal -6.436305e-01 7.653216e-01 -4.763233e-03
    outer loop
      vertex -1.541756e+01 4.139917e+00 7.479433e+00
      vertex -1.575568e+01 3.855915e+00 7.536700e+00
      vertex -5.941974e+00 1.212181e+01 9.565991e+00
    endloop
  endfacet
  facet normal -6.454099e-01 7.637774e-01 9.496069e-03
    outer loop
      vertex -1.575568e+01 3.855915e+00 7.536700e+00
      vertex -2.310432e+01 -2.404290e+00 1.159277e+01
      vertex -9.618295e+00 8.991709e+00 1.159402e+01
    endloop
  endfacet
  facet normal -6.510663e-01 7.590128e-01 -3.476605e-03
    outer loop
      vertex -1.667352e+01 3.080062e+00 4.634703e+00
      vertex -2.310432e+01 -2.404290e+00 1.159277e+01
      vertex -1.687826e+01 2.906044e+00 4.986259e+00
    endloop
  endfacet
  facet normal -6.375630e-01 7.698699e-01 -2.852685e-02
    outer loop
      vertex -1.510494e+01 4.406076e+00 4.364104e+00
      vertex -5.774420e+00 1.226390e+01 7.894349e+00
      vertex -1.541858e+01 4.140084e+00 4.195424e+00
    endloop
  endfacet
  facet normal 1.604569e-05 -8.713529e-05 -1.000000e+00
    outer loop
      vertex 2.250432e+01 5.894291e+00 5.013373e-02
      vertex 1.793232e+01 1.784629e+01 4.901893e-02
      vertex 2.306833e+01 1.176829e+01 4.963095e-02
    endloop
  endfacet
  facet normal 6.463607e-04 1.539795e-04 -9.999998e-01
    outer loop
      vertex 1.793232e+01 1.784629e+01 4.901893e-02
      vertex 2.250432e+01 5.894291e+00 5.013373e-02
      vertex 2.106832e+01 4.682290e+00 4.901893e-02
    endloop
  endfacet
  facet normal -2.594985e-10 -4.391539e-10 -1.000000e+00
    outer loop
      vertex 1.793232e+01 1.784629e+01 4.901893e-02
      vertex 2.106832e+01 4.682290e+00 4.901893e-02
      vertex 1.816432e+01 8.120289e+00 4.901893e-02
    endloop
  endfacet
  facet normal -4.420824e-04 -1.054570e-05 -9.999999e-01
    outer loop
      vertex 1.793232e+01 1.784629e+01 4.901893e-02
      vertex 1.816432e+01 8.120289e+00 4.901893e-02
      vertex 1.587431e+01 6.182291e+00 5.005174e-02
    endloop
  endfacet
  facet normal -2.599291e-04 -4.268513e-05 -1.000000e+00
    outer loop
      vertex 1.793232e+01 1.784629e+01 4.901893e-02
      vertex 1.587431e+01 6.182291e+00 5.005174e-02
      vertex 1.204830e+01 1.826829e+01 5.053034e-02
    endloop
  endfacet
  facet normal 2.247152e-01 7.117549e-02 -9.718215e-01
    outer loop
      vertex 1.204830e+01 1.826829e+01 5.053034e-02
      vertex 1.587431e+01 6.182291e+00 5.005174e-02
      vertex 1.351630e+01 1.361829e+01 4.941555e-02
    endloop
  endfacet
  facet normal 4.532156e-04 3.828216e-04 -9.999999e-01
    outer loop
      vertex 1.204830e+01 1.826829e+01 5.053034e-02
      vertex 1.351630e+01 1.361829e+01 4.941555e-02
      vertex 1.061230e+01 1.705629e+01 4.941554e-02
    endloop
  endfacet
  facet normal 4.961613e-05 1.664752e-04 -1.000000e+00
    outer loop
      vertex 1.154430e+01 -2.379709e+00 4.841155e-02
      vertex 1.587431e+01 6.182291e+00 5.005174e-02
      vertex 2.310232e+01 -2.373710e+00 4.898600e-02
    endloop
  endfacet
  facet normal 3.367934e-04 2.124246e-05 -9.999999e-01
    outer loop
      vertex 1.587431e+01 6.182291e+00 5.005174e-02
      vertex 1.154430e+01 -2.379709e+00 4.841155e-02
      vertex 1.351630e+01 1.361829e+01 4.941555e-02
    endloop
  endfacet
  facet normal -5.627567e-04 1.321262e-04 -9.999998e-01
    outer loop
      vertex 1.351630e+01 1.361829e+01 4.941555e-02
      vertex 1.154430e+01 -2.379709e+00 4.841155e-02
      vertex 1.122630e+01 1.168229e+01 5.044846e-02
    endloop
  endfacet
  facet normal -1.074922e-02 4.213097e-05 -9.999422e-01
    outer loop
      vertex 1.154430e+01 -2.379709e+00 4.841155e-02
      vertex 1.155630e+01 -2.037971e+01 4.752416e-02
      vertex 1.139030e+01 -4.349709e+00 4.998406e-02
    endloop
  endfacet
  facet normal 4.712693e-05 1.539587e-04 -1.000000e+00
    outer loop
      vertex 1.155630e+01 -2.037971e+01 4.752416e-02
      vertex 1.227073e-02 -2.038771e+01 4.697890e-02
      vertex 5.618282e+00 -4.353709e+00 4.971167e-02
    endloop
  endfacet
  facet normal -3.189078e-04 2.819368e-04 -9.999999e-01
    outer loop
      vertex 1.227073e-02 -2.038771e+01 4.697890e-02
      vertex 9.762705e-01 -1.019371e+01 4.954553e-02
      vertex 5.618282e+00 -4.353709e+00 4.971167e-02
    endloop
  endfacet
  facet normal -3.877242e-05 5.926599e-05 -1.000000e+00
    outer loop
      vertex 9.762705e-01 -1.019371e+01 4.954553e-02
      vertex 1.940272e+00 2.917645e-04 5.011231e-02
      vertex 5.618282e+00 -4.353709e+00 4.971167e-02
    endloop
  endfacet
  facet normal 1.233851e-03 -6.108046e-05 -9.999992e-01
    outer loop
      vertex 1.940272e+00 2.917645e-04 5.011231e-02
      vertex 9.762705e-01 -1.019371e+01 4.954553e-02
      vertex -1.726987e-03 -2.387707e+00 4.786203e-02
    endloop
  endfacet
  facet normal 1.097222e-03 5.003085e-05 -9.999994e-01
    outer loop
      vertex -1.726987e-03 -2.387707e+00 4.786203e-02
      vertex 1.934275e+00 9.000292e+00 5.055601e-02
      vertex 1.940272e+00 2.917645e-04 5.011231e-02
    endloop
  endfacet
  facet normal 2.126169e-03 5.071645e-05 -9.999977e-01
    outer loop
      vertex 9.762705e-01 -1.019371e+01 4.954553e-02
      vertex 1.227073e-02 -2.038771e+01 4.697890e-02
      vertex -1.726987e-03 -2.387707e+00 4.786203e-02
    endloop
  endfacet
  facet normal 4.847386e-05 2.283221e-04 -9.999999e-01
    outer loop
      vertex -9.617751e+00 8.992294e+00 4.999422e-02
      vertex 1.934275e+00 9.000292e+00 5.055601e-02
      vertex -1.726987e-03 -2.387707e+00 4.786203e-02
    endloop
  endfacet
  facet normal 3.336879e-04 5.355483e-05 9.999999e-01
    outer loop
      vertex 1.793177e+01 1.784571e+01 1.159504e+01
      vertex 2.250378e+01 5.893705e+00 1.159416e+01
      vertex 2.306778e+01 1.176770e+01 1.159366e+01
    endloop
  endfacet
  facet normal -5.379047e-04 -2.798559e-04 9.999998e-01
    outer loop
      vertex 2.250378e+01 5.893705e+00 1.159416e+01
      vertex 1.793177e+01 1.784571e+01 1.159504e+01
      vertex 2.106978e+01 4.681705e+00 1.159305e+01
    endloop
  endfacet
  facet normal -2.518934e-04 -2.116770e-04 9.999999e-01
    outer loop
      vertex 2.106978e+01 4.681705e+00 1.159305e+01
      vertex 1.793177e+01 1.784571e+01 1.159504e+01
      vertex 1.816377e+01 8.119704e+00 1.159304e+01
    endloop
  endfacet
  facet normal 6.126931e-04 -1.910534e-04 9.999998e-01
    outer loop
      vertex 1.816377e+01 8.119704e+00 1.159304e+01
      vertex 1.793177e+01 1.784571e+01 1.159504e+01
      vertex 1.587376e+01 6.181705e+00 1.159408e+01
    endloop
  endfacet
  facet normal -8.801004e-05 -6.742074e-05 1.000000e+00
    outer loop
      vertex 1.587376e+01 6.181705e+00 1.159408e+01
      vertex 1.793177e+01 1.784571e+01 1.159504e+01
      vertex 1.204776e+01 1.826771e+01 1.159455e+01
    endloop
  endfacet
  facet normal -4.127921e-01 -1.307112e-01 9.013975e-01
    outer loop
      vertex 1.587376e+01 6.181705e+00 1.159408e+01
      vertex 1.204776e+01 1.826771e+01 1.159455e+01
      vertex 1.351776e+01 1.361771e+01 1.159344e+01
    endloop
  endfacet
  facet normal -4.534987e-04 -3.820880e-04 9.999998e-01
    outer loop
      vertex 1.351776e+01 1.361771e+01 1.159344e+01
      vertex 1.204776e+01 1.826771e+01 1.159455e+01
      vertex 1.061175e+01 1.705571e+01 1.159344e+01
    endloop
  endfacet
  facet normal 1.245466e-04 -8.168319e-05 1.000000e+00
    outer loop
      vertex -9.618295e+00 8.991709e+00 1.159402e+01
      vertex -1.155230e+01 -2.398292e+00 1.159333e+01
      vertex -2.705684e-04 -2.388293e+00 1.159189e+01
    endloop
  endfacet
  facet normal -2.217413e-04 -7.770269e-05 1.000000e+00
    outer loop
      vertex 1.587376e+01 6.181705e+00 1.159408e+01
      vertex 1.155175e+01 -2.380294e+00 1.159245e+01
      vertex 2.310377e+01 -2.374296e+00 1.159501e+01
    endloop
  endfacet
  facet normal -3.342384e-04 -2.091498e-05 9.999999e-01
    outer loop
      vertex 1.155175e+01 -2.380294e+00 1.159245e+01
      vertex 1.587376e+01 6.181705e+00 1.159408e+01
      vertex 1.351776e+01 1.361771e+01 1.159344e+01
    endloop
  endfacet
  facet normal -4.146138e-04 -1.103767e-05 9.999999e-01
    outer loop
      vertex 1.155175e+01 -2.380294e+00 1.159245e+01
      vertex 1.351776e+01 1.361771e+01 1.159344e+01
      vertex 1.122576e+01 1.168171e+01 1.159247e+01
    endloop
  endfacet
  facet normal -2.126169e-03 -5.071645e-05 9.999977e-01
    outer loop
      vertex 1.139375e+01 -4.350294e+00 1.159202e+01
      vertex 1.156375e+01 -2.038029e+01 1.159157e+01
      vertex 1.155175e+01 -2.380294e+00 1.159245e+01
    endloop
  endfacet
  facet normal -2.126169e-03 -5.071645e-05 9.999977e-01
    outer loop
      vertex 1.155175e+01 -2.380294e+00 1.159245e+01
      vertex 1.122576e+01 1.168171e+01 1.159247e+01
      vertex 1.139375e+01 -4.350294e+00 1.159202e+01
    endloop
  endfacet
  facet normal -4.861215e-05 -2.868385e-05 1.000000e+00
    outer loop
      vertex 5.617742e+00 -4.354295e+00 1.159174e+01
      vertex 1.156375e+01 -2.038029e+01 1.159157e+01
      vertex 1.139375e+01 -4.350294e+00 1.159202e+01
    endloop
  endfacet
  facet normal -4.861098e-05 -2.894607e-05 1.000000e+00
    outer loop
      vertex 5.617742e+00 -4.354295e+00 1.159174e+01
      vertex 1.139375e+01 -4.350294e+00 1.159202e+01
      vertex 1.122576e+01 1.168171e+01 1.159247e+01
    endloop
  endfacet
  facet normal 2.827451e-04 -8.233776e-05 9.999999e-01
    outer loop
      vertex 1.122576e+01 1.168171e+01 1.159247e+01
      vertex 3.867736e+00 2.038771e+01 1.159527e+01
      vertex 2.903732e+00 1.019371e+01 1.159470e+01
    endloop
  endfacet
  facet normal -1.096162e-03 -5.003016e-05 9.999994e-01
    outer loop
      vertex -2.705684e-04 -2.388293e+00 1.159189e+01
      vertex 1.939729e+00 -2.937117e-04 1.159414e+01
      vertex 1.933731e+00 8.999707e+00 1.159458e+01
    endloop
  endfacet
  facet normal -6.615800e-05 -4.934358e-05 1.000000e+00
    outer loop
      vertex 9.757304e-01 -1.019429e+01 1.159157e+01
      vertex -2.705684e-04 -2.388293e+00 1.159189e+01
      vertex 1.172635e-02 -2.038829e+01 1.159100e+01
    endloop
  endfacet
  facet normal -9.595149e-04 -1.610418e-04 9.999995e-01
    outer loop
      vertex 1.939729e+00 -2.937117e-04 1.159414e+01
      vertex -2.705684e-04 -2.388293e+00 1.159189e+01
      vertex 9.757304e-01 -1.019429e+01 1.159157e+01
    endloop
  endfacet
  facet normal -6.566510e-05 -4.934346e-05 1.000000e+00
    outer loop
      vertex 2.903732e+00 1.019371e+01 1.159470e+01
      vertex 1.933731e+00 8.999707e+00 1.159458e+01
      vertex 1.939729e+00 -2.937117e-04 1.159414e+01
    endloop
  endfacet
  facet normal 5.192713e-04 -9.999999e-01 -5.078215e-05
    outer loop
      vertex 1.155175e+01 -2.380294e+00 1.159245e+01
      vertex 2.310232e+01 -2.373710e+00 4.898600e-02
      vertex 2.310377e+01 -2.374296e+00 1.159501e+01
    endloop
  endfacet
  facet normal 5.190015e-04 -9.999999e-01 -5.105214e-05
    outer loop
      vertex 2.310232e+01 -2.373710e+00 4.898600e-02
      vertex 1.155175e+01 -2.380294e+00 1.159245e+01
      vertex 1.154430e+01 -2.379709e+00 4.841155e-02
    endloop
  endfacet
  facet normal 6.923470e-04 -9.999998e-01 -5.068416e-05
    outer loop
      vertex 1.227073e-02 -2.038771e+01 4.697890e-02
      vertex 1.156375e+01 -2.038029e+01 1.159157e+01
      vertex 1.172635e-02 -2.038829e+01 1.159100e+01
    endloop
  endfacet
  facet normal 6.928269e-04 -9.999998e-01 -5.116442e-05
    outer loop
      vertex 1.156375e+01 -2.038029e+01 1.159157e+01
      vertex 1.227073e-02 -2.038771e+01 4.697890e-02
      vertex 1.155630e+01 -2.037971e+01 4.752416e-02
    endloop
  endfacet
  facet normal 9.999996e-01 6.664208e-04 -6.459209e-04
    outer loop
      vertex 1.155175e+01 -2.380294e+00 1.159245e+01
      vertex 1.155403e+01 -1.138000e+01 5.819989e+00
      vertex 1.154430e+01 -2.379709e+00 4.841155e-02
    endloop
  endfacet
  facet normal 9.999996e-01 6.666325e-04 -6.455910e-04
    outer loop
      vertex 1.155630e+01 -2.037971e+01 4.752416e-02
      vertex 1.154430e+01 -2.379709e+00 4.841155e-02
      vertex 1.155403e+01 -1.138000e+01 5.819989e+00
    endloop
  endfacet
  facet normal -9.999998e-01 -6.664926e-04 -4.647022e-05
    outer loop
      vertex 1.172635e-02 -2.038829e+01 1.159100e+01
      vertex -2.705684e-04 -2.388293e+00 1.159189e+01
      vertex 5.995829e-03 -1.138800e+01 5.821435e+00
    endloop
  endfacet
  facet normal -9.999997e-01 -7.771564e-04 1.261236e-04
    outer loop
      vertex -1.726987e-03 -2.387707e+00 4.786203e-02
      vertex 5.995829e-03 -1.138800e+01 5.821435e+00
      vertex -2.705684e-04 -2.388293e+00 1.159189e+01
    endloop
  endfacet
  facet normal 6.449873e-01 -7.641934e-01 -1.201308e-04
    outer loop
      vertex 2.106978e+01 4.681705e+00 1.159305e+01
      vertex 2.106832e+01 4.682290e+00 4.901893e-02
      vertex 2.250432e+01 5.894291e+00 5.013373e-02
    endloop
  endfacet
  facet normal 6.455127e-01 -7.637495e-01 -8.187711e-06
    outer loop
      vertex 2.250432e+01 5.894291e+00 5.013373e-02
      vertex 2.250378e+01 5.893705e+00 1.159416e+01
      vertex 2.106978e+01 4.681705e+00 1.159305e+01
    endloop
  endfacet
  facet normal 9.954220e-01 -9.557726e-02 4.225801e-05
    outer loop
      vertex 2.306778e+01 1.176770e+01 1.159366e+01
      vertex 2.250432e+01 5.894291e+00 5.013373e-02
      vertex 2.306833e+01 1.176829e+01 4.963095e-02
    endloop
  endfacet
  facet normal 9.954220e-01 -9.557726e-02 4.225801e-05
    outer loop
      vertex 2.250432e+01 5.894291e+00 5.013373e-02
      vertex 2.306778e+01 1.176770e+01 1.159366e+01
      vertex 2.250378e+01 5.893705e+00 1.159416e+01
    endloop
  endfacet
  facet normal -6.449879e-01 7.641928e-01 8.448969e-06
    outer loop
      vertex 1.204776e+01 1.826771e+01 1.159455e+01
      vertex 1.061230e+01 1.705629e+01 4.941554e-02
      vertex 1.061175e+01 1.705571e+01 1.159344e+01
    endloop
  endfacet
  facet normal -6.449869e-01 7.641936e-01 8.234166e-06
    outer loop
      vertex 1.061230e+01 1.705629e+01 4.941554e-02
      vertex 1.204776e+01 1.826771e+01 1.159455e+01
      vertex 1.204830e+01 1.826829e+01 5.053034e-02
    endloop
  endfacet
  facet normal 7.153594e-02 9.974380e-01 5.397463e-05
    outer loop
      vertex 1.793177e+01 1.784571e+01 1.159504e+01
      vertex 1.204830e+01 1.826829e+01 5.053034e-02
      vertex 1.204776e+01 1.826771e+01 1.159455e+01
    endloop
  endfacet
  facet normal 7.153592e-02 9.974380e-01 5.397588e-05
    outer loop
      vertex 1.204830e+01 1.826829e+01 5.053034e-02
      vertex 1.793177e+01 1.784571e+01 1.159504e+01
      vertex 1.793232e+01 1.784629e+01 4.901893e-02
    endloop
  endfacet
  facet normal -3.829442e-05 5.917438e-05 -1.000000e+00
    outer loop
      vertex 1.122630e+01 1.168229e+01 5.044846e-02
      vertex 2.904277e+00 1.019429e+01 5.067910e-02
      vertex 3.868281e+00 2.038829e+01 5.124541e-02
    endloop
  endfacet
  facet normal 4.232003e-04 -1.939453e-04 9.999999e-01
    outer loop
      vertex 1.939729e+00 -2.937117e-04 1.159414e+01
      vertex 5.617742e+00 -4.354295e+00 1.159174e+01
      vertex 1.122576e+01 1.168171e+01 1.159247e+01
    endloop
  endfacet
  facet normal -6.454105e-01 7.637802e-01 -9.239881e-03
    outer loop
      vertex -1.575445e+01 3.856087e+00 4.136695e+00
      vertex -9.617751e+00 8.992294e+00 4.999422e-02
      vertex -2.310378e+01 -2.403705e+00 4.874255e-02
    endloop
  endfacet
  facet normal 4.859608e-05 5.232567e-05 -1.000000e+00
    outer loop
      vertex -9.617751e+00 8.992294e+00 4.999422e-02
      vertex -1.155176e+01 -2.397706e+00 4.930424e-02
      vertex -2.310378e+01 -2.403705e+00 4.874255e-02
    endloop
  endfacet
  facet normal -6.452999e-01 7.638739e-01 9.207525e-03
    outer loop
      vertex -9.618295e+00 8.991709e+00 1.159402e+01
      vertex -5.941974e+00 1.212181e+01 9.565991e+00
      vertex -1.575568e+01 3.855915e+00 7.536700e+00
    endloop
  endfacet
  facet normal -4.851483e-05 -2.279501e-04 9.999999e-01
    outer loop
      vertex -9.618295e+00 8.991709e+00 1.159402e+01
      vertex -2.705684e-04 -2.388293e+00 1.159189e+01
      vertex 1.933731e+00 8.999707e+00 1.159458e+01
    endloop
  endfacet
  facet normal 4.708479e-05 1.539434e-04 -1.000000e+00
    outer loop
      vertex 5.618282e+00 -4.353709e+00 4.971167e-02
      vertex 1.139030e+01 -4.349709e+00 4.998406e-02
      vertex 1.155630e+01 -2.037971e+01 4.752416e-02
    endloop
  endfacet
  facet normal -3.857135e-05 5.943548e-05 -1.000000e+00
    outer loop
      vertex 1.940272e+00 2.917645e-04 5.011231e-02
      vertex 1.122630e+01 1.168229e+01 5.044846e-02
      vertex 5.618282e+00 -4.353709e+00 4.971167e-02
    endloop
  endfacet
  facet normal -4.861215e-05 -2.868410e-05 1.000000e+00
    outer loop
      vertex 1.156375e+01 -2.038029e+01 1.159157e+01
      vertex 5.617742e+00 -4.354295e+00 1.159174e+01
      vertex 1.172635e-02 -2.038829e+01 1.159100e+01
    endloop
  endfacet
  facet normal 3.888837e-05 -5.927744e-05 1.000000e+00
    outer loop
      vertex 1.172635e-02 -2.038829e+01 1.159100e+01
      vertex 5.617742e+00 -4.354295e+00 1.159174e+01
      vertex 9.757304e-01 -1.019429e+01 1.159157e+01
    endloop
  endfacet
  facet normal 3.190240e-04 -2.819472e-04 9.999999e-01
    outer loop
      vertex 9.757304e-01 -1.019429e+01 1.159157e+01
      vertex 5.617742e+00 -4.354295e+00 1.159174e+01
      vertex 1.939729e+00 -2.937117e-04 1.159414e+01
    endloop
  endfacet
  facet normal -9.356625e-03 -6.674515e-05 -9.999563e-01
    outer loop
      vertex 1.154430e+01 -2.379709e+00 4.841155e-02
      vertex 1.139030e+01 -4.349709e+00 4.998406e-02
      vertex 1.122630e+01 1.168229e+01 5.044846e-02
    endloop
  endfacet
  facet normal 4.717116e-05 2.944990e-05 -1.000000e+00
    outer loop
      vertex 5.618282e+00 -4.353709e+00 4.971167e-02
      vertex 1.122630e+01 1.168229e+01 5.044846e-02
      vertex 1.139030e+01 -4.349709e+00 4.998406e-02
    endloop
  endfacet
  facet normal -6.443279e-01 7.647493e-01 8.401413e-06
    outer loop
      vertex 3.868281e+00 2.038829e+01 5.124541e-02
      vertex -5.774420e+00 1.226390e+01 7.894349e+00
      vertex 3.867736e+00 2.038771e+01 1.159527e+01
    endloop
  endfacet
  facet normal -6.242499e-01 7.771638e-01 -7.955275e-02
    outer loop
      vertex -5.774420e+00 1.226390e+01 7.894349e+00
      vertex -5.618603e+00 1.239789e+01 7.980688e+00
      vertex 3.867736e+00 2.038771e+01 1.159527e+01
    endloop
  endfacet
  facet normal -6.454085e-01 7.637778e-01 -9.555263e-03
    outer loop
      vertex -9.617751e+00 8.992294e+00 4.999422e-02
      vertex -5.944088e+00 1.212219e+01 2.093968e+00
      vertex 3.868281e+00 2.038829e+01 5.124541e-02
    endloop
  endfacet
  facet normal -6.450315e-01 7.641298e-01 -6.320349e-03
    outer loop
      vertex -5.944088e+00 1.212219e+01 2.093968e+00
      vertex -5.776147e+00 1.226419e+01 2.122333e+00
      vertex 3.868281e+00 2.038829e+01 5.124541e-02
    endloop
  endfacet
  facet normal -6.448811e-01 7.642668e-01 4.951091e-03
    outer loop
      vertex -5.941974e+00 1.212181e+01 9.565991e+00
      vertex -5.773912e+00 1.226381e+01 9.536354e+00
      vertex -1.541756e+01 4.139917e+00 7.479433e+00
    endloop
  endfacet
  facet normal -6.454136e-01 7.637819e-01 8.859467e-03
    outer loop
      vertex -9.618295e+00 8.991709e+00 1.159402e+01
      vertex 3.867736e+00 2.038771e+01 1.159527e+01
      vertex -5.941974e+00 1.212181e+01 9.565991e+00
    endloop
  endfacet
  facet normal -6.435883e-01 7.653654e-01 -3.143105e-03
    outer loop
      vertex -1.483751e+01 4.632062e+00 4.634685e+00
      vertex -5.618603e+00 1.239789e+01 7.980688e+00
      vertex -1.510494e+01 4.406076e+00 4.364104e+00
    endloop
  endfacet
  facet normal -6.245806e-01 7.769868e-01 -7.868105e-02
    outer loop
      vertex -5.774420e+00 1.226390e+01 7.894349e+00
      vertex -1.510494e+01 4.406076e+00 4.364104e+00
      vertex -5.618603e+00 1.239789e+01 7.980688e+00
    endloop
  endfacet
  facet normal -6.442997e-01 7.647730e-01 2.316360e-04
    outer loop
      vertex -5.774420e+00 1.226390e+01 7.894349e+00
      vertex -5.776147e+00 1.226419e+01 2.122333e+00
      vertex -1.541858e+01 4.140084e+00 4.195424e+00
    endloop
  endfacet
  facet normal -6.450676e-01 7.641022e-01 -5.968979e-03
    outer loop
      vertex -5.944088e+00 1.212219e+01 2.093968e+00
      vertex -1.541858e+01 4.140084e+00 4.195424e+00
      vertex -5.776147e+00 1.226419e+01 2.122333e+00
    endloop
  endfacet
  facet normal -6.446170e-01 7.645006e-01 2.794229e-03
    outer loop
      vertex -5.773912e+00 1.226381e+01 9.536354e+00
      vertex -5.617729e+00 1.239582e+01 9.450693e+00
      vertex -1.510520e+01 4.403926e+00 7.310111e+00
    endloop
  endfacet
  facet normal -6.449178e-01 7.642381e-01 4.604674e-03
    outer loop
      vertex -5.941974e+00 1.212181e+01 9.565991e+00
      vertex 3.867736e+00 2.038771e+01 1.159527e+01
      vertex -5.773912e+00 1.226381e+01 9.536354e+00
    endloop
  endfacet
  facet normal -6.454703e-01 7.637637e-01 5.759844e-03
    outer loop
      vertex -5.618603e+00 1.239789e+01 7.980688e+00
      vertex -5.484888e+00 1.250988e+01 8.114978e+00
      vertex 3.867736e+00 2.038771e+01 1.159527e+01
    endloop
  endfacet
  facet normal -6.434919e-01 7.654435e-01 -3.798512e-03
    outer loop
      vertex -5.484888e+00 1.250988e+01 8.114978e+00
      vertex -1.463026e+01 4.806044e+00 4.987136e+00
      vertex -5.381262e+00 1.259787e+01 8.291203e+00
    endloop
  endfacet
  facet normal -6.447937e-01 7.643454e-01 4.146470e-03
    outer loop
      vertex -5.617729e+00 1.239582e+01 9.450693e+00
      vertex -5.483443e+00 1.250982e+01 9.316985e+00
      vertex -1.483662e+01 4.631940e+00 7.038693e+00
    endloop
  endfacet
  facet normal -6.446743e-01 7.644529e-01 2.616471e-03
    outer loop
      vertex -5.773912e+00 1.226381e+01 9.536354e+00
      vertex 3.867736e+00 2.038771e+01 1.159527e+01
      vertex -5.617729e+00 1.239582e+01 9.450693e+00
    endloop
  endfacet
  facet normal -6.433688e-01 7.655463e-01 -3.922193e-03
    outer loop
      vertex -5.484888e+00 1.250988e+01 8.114978e+00
      vertex -5.381262e+00 1.259787e+01 8.291203e+00
      vertex 3.867736e+00 2.038771e+01 1.159527e+01
    endloop
  endfacet
  facet normal -6.451798e-01 7.640134e-01 5.155567e-03
    outer loop
      vertex -5.381262e+00 1.259787e+01 8.291203e+00
      vertex -1.450113e+01 4.916023e+00 5.397416e+00
      vertex -5.315696e+00 1.265187e+01 8.495345e+00
    endloop
  endfacet
  facet normal -6.448587e-01 7.642912e-01 4.034948e-03
    outer loop
      vertex -5.617729e+00 1.239582e+01 9.450693e+00
      vertex 3.867736e+00 2.038771e+01 1.159527e+01
      vertex -5.483443e+00 1.250982e+01 9.316985e+00
    endloop
  endfacet
  facet normal -6.452726e-01 7.639347e-01 5.206142e-03
    outer loop
      vertex -5.381262e+00 1.259787e+01 8.291203e+00
      vertex -5.315696e+00 1.265187e+01 8.495345e+00
      vertex 3.867736e+00 2.038771e+01 1.159527e+01
    endloop
  endfacet
  facet normal -6.440635e-01 7.649714e-01 -9.019385e-04
    outer loop
      vertex -5.381071e+00 1.259783e+01 9.141206e+00
      vertex -5.316632e+00 1.265184e+01 8.935345e+00
      vertex -1.450100e+01 4.915978e+00 6.277419e+00
    endloop
  endfacet
  facet normal -6.452309e-01 7.639581e-01 6.714247e-03
    outer loop
      vertex -5.483443e+00 1.250982e+01 9.316985e+00
      vertex 3.867736e+00 2.038771e+01 1.159527e+01
      vertex -5.381071e+00 1.259783e+01 9.141206e+00
    endloop
  endfacet
  facet normal -6.429226e-01 7.659022e-01 -6.665488e-03
    outer loop
      vertex -5.315696e+00 1.265187e+01 8.495345e+00
      vertex -5.294164e+00 1.267185e+01 8.715393e+00
      vertex 3.867736e+00 2.038771e+01 1.159527e+01
    endloop
  endfacet
  facet normal -6.448334e-01 7.643143e-01 3.671889e-03
    outer loop
      vertex -5.294164e+00 1.267185e+01 8.715393e+00
      vertex -1.450100e+01 4.915978e+00 6.277419e+00
      vertex -5.316632e+00 1.265184e+01 8.935345e+00
    endloop
  endfacet
  facet normal -6.448341e-01 7.643138e-01 3.671790e-03
    outer loop
      vertex -5.294164e+00 1.267185e+01 8.715393e+00
      vertex -5.316632e+00 1.265184e+01 8.935345e+00
      vertex 3.867736e+00 2.038771e+01 1.159527e+01
    endloop
  endfacet
  facet normal -6.440635e-01 7.649716e-01 -9.019431e-04
    outer loop
      vertex -5.381071e+00 1.259783e+01 9.141206e+00
      vertex 3.867736e+00 2.038771e+01 1.159527e+01
      vertex -5.316632e+00 1.265184e+01 8.935345e+00
    endloop
  endfacet
  facet normal 8.656959e-04 -9.999996e-01 2.756076e-04
    outer loop
      vertex -1.261978e+01 -2.397850e+00 2.883040e+00
      vertex -1.155176e+01 -2.397706e+00 4.930424e-02
      vertex -1.726987e-03 -2.387707e+00 4.786203e-02
    endloop
  endfacet
  facet normal -1.249366e-04 8.179128e-05 -1.000000e+00
    outer loop
      vertex -9.617751e+00 8.992294e+00 4.999422e-02
      vertex -1.726987e-03 -2.387707e+00 4.786203e-02
      vertex -1.155176e+01 -2.397706e+00 4.930424e-02
    endloop
  endfacet
  facet normal 5.192807e-04 -9.999998e-01 -2.475301e-04
    outer loop
      vertex -1.262628e+01 -2.398148e+00 8.759040e+00
      vertex -1.155230e+01 -2.398292e+00 1.159333e+01
      vertex -2.310432e+01 -2.404290e+00 1.159277e+01
    endloop
  endfacet
  facet normal -4.859608e-05 -5.228379e-05 1.000000e+00
    outer loop
      vertex -9.618295e+00 8.991709e+00 1.159402e+01
      vertex -2.310432e+01 -2.404290e+00 1.159277e+01
      vertex -1.155230e+01 -2.398292e+00 1.159333e+01
    endloop
  endfacet
  facet normal 6.622110e-05 4.929087e-05 -1.000000e+00
    outer loop
      vertex 1.934275e+00 9.000292e+00 5.055601e-02
      vertex 3.868281e+00 2.038829e+01 5.124541e-02
      vertex 2.904277e+00 1.019429e+01 5.067910e-02
    endloop
  endfacet
  facet normal 4.859608e-05 5.228397e-05 -1.000000e+00
    outer loop
      vertex -9.617751e+00 8.992294e+00 4.999422e-02
      vertex 3.868281e+00 2.038829e+01 5.124541e-02
      vertex 1.934275e+00 9.000292e+00 5.055601e-02
    endloop
  endfacet
  facet normal -4.863706e-05 -5.227718e-05 1.000000e+00
    outer loop
      vertex -9.618295e+00 8.991709e+00 1.159402e+01
      vertex 1.933731e+00 8.999707e+00 1.159458e+01
      vertex 3.867736e+00 2.038771e+01 1.159527e+01
    endloop
  endfacet
  facet normal -6.560014e-05 -4.939640e-05 1.000000e+00
    outer loop
      vertex 1.933731e+00 8.999707e+00 1.159458e+01
      vertex 2.903732e+00 1.019371e+01 1.159470e+01
      vertex 3.867736e+00 2.038771e+01 1.159527e+01
    endloop
  endfacet
  facet normal 9.999996e-01 6.666325e-04 -6.462508e-04
    outer loop
      vertex 1.155175e+01 -2.380294e+00 1.159245e+01
      vertex 1.156375e+01 -2.038029e+01 1.159157e+01
      vertex 1.155403e+01 -1.138000e+01 5.819989e+00
    endloop
  endfacet
  facet normal 9.999996e-01 6.668442e-04 -6.459209e-04
    outer loop
      vertex 1.155630e+01 -2.037971e+01 4.752416e-02
      vertex 1.155403e+01 -1.138000e+01 5.819989e+00
      vertex 1.156375e+01 -2.038029e+01 1.159157e+01
    endloop
  endfacet
  facet normal -9.999998e-01 -6.669546e-04 -4.719028e-05
    outer loop
      vertex 1.172635e-02 -2.038829e+01 1.159100e+01
      vertex 5.995829e-03 -1.138800e+01 5.821435e+00
      vertex 1.227073e-02 -2.038771e+01 4.697890e-02
    endloop
  endfacet
  facet normal -9.999997e-01 -7.776568e-04 1.253427e-04
    outer loop
      vertex -1.726987e-03 -2.387707e+00 4.786203e-02
      vertex 1.227073e-02 -2.038771e+01 4.697890e-02
      vertex 5.995829e-03 -1.138800e+01 5.821435e+00
    endloop
  endfacet
  facet normal 2.827360e-04 -8.229022e-05 9.999999e-01
    outer loop
      vertex 1.122576e+01 1.168171e+01 1.159247e+01
      vertex 2.903732e+00 1.019371e+01 1.159470e+01
      vertex 1.939729e+00 -2.937117e-04 1.159414e+01
    endloop
  endfacet
  facet normal -3.830326e-05 5.922208e-05 -1.000000e+00
    outer loop
      vertex 1.122630e+01 1.168229e+01 5.044846e-02
      vertex 1.940272e+00 2.917645e-04 5.011231e-02
      vertex 2.904277e+00 1.019429e+01 5.067910e-02
    endloop
  endfacet
  facet normal 6.615614e-05 4.934379e-05 -1.000000e+00
    outer loop
      vertex 1.934275e+00 9.000292e+00 5.055601e-02
      vertex 2.904277e+00 1.019429e+01 5.067910e-02
      vertex 1.940272e+00 2.917645e-04 5.011231e-02
    endloop
  endfacet
endsolid Default
