solid Default
  facet normal 3.828569e-16 1.000000e+00 0.000000e+00
    outer loop
      vertex 1.312703e+01 1.950000e+01 3.000000e+00
      vertex -1.312703e+01 1.950000e+01 0.000000e+00
      vertex -1.312703e+01 1.950000e+01 3.000000e+00
    endloop
  endfacet
  facet normal 3.828569e-16 1.000000e+00 0.000000e+00
    outer loop
      vertex -1.312703e+01 1.950000e+01 0.000000e+00
      vertex 1.312703e+01 1.950000e+01 3.000000e+00
      vertex 1.312703e+01 1.950000e+01 0.000000e+00
    endloop
  endfacet
  facet normal -1.000000e+00 4.448834e-16 -3.825629e-17
    outer loop
      vertex -1.312703e+01 -1.680000e+01 0.000000e+00
      vertex -1.312703e+01 1.950000e+01 3.000000e+00
      vertex -1.312703e+01 1.950000e+01 0.000000e+00
    endloop
  endfacet
  facet normal -1.000000e+00 4.448834e-16 -3.825629e-17
    outer loop
      vertex -1.312703e+01 1.950000e+01 3.000000e+00
      vertex -1.312703e+01 -1.680000e+01 0.000000e+00
      vertex -1.312703e+01 -1.420000e+01 3.000000e+00
    endloop
  endfacet
  facet normal -1.000000e+00 4.448834e-16 -3.825629e-17
    outer loop
      vertex -1.312703e+01 -1.420000e+01 3.000000e+00
      vertex -1.312703e+01 -1.680000e+01 0.000000e+00
      vertex -1.312703e+01 -1.680000e+01 6.000000e+00
    endloop
  endfacet
  facet normal -1.000000e+00 4.448834e-16 -3.825629e-17
    outer loop
      vertex -1.312703e+01 -1.420000e+01 3.000000e+00
      vertex -1.312703e+01 -1.680000e+01 6.000000e+00
      vertex -1.312703e+01 -1.420000e+01 6.000000e+00
    endloop
  endfacet
  facet normal -8.660254e-01 -5.000000e-01 -2.329871e-19
    outer loop
      vertex 5.908871e+00 -1.750000e+01 3.000000e+00
      vertex 5.618923e+00 -1.680000e+01 0.000000e+00
      vertex 5.908871e+00 -1.750000e+01 0.000000e+00
    endloop
  endfacet
  facet normal -9.238795e-01 -3.826834e-01 -4.619877e-19
    outer loop
      vertex 5.618923e+00 -1.680000e+01 0.000000e+00
      vertex 5.908871e+00 -1.750000e+01 3.000000e+00
      vertex 5.618923e+00 -1.680000e+01 3.000000e+00
    endloop
  endfacet
  facet normal -7.071068e-01 -7.071068e-01 0.000000e+00
    outer loop
      vertex 6.544544e+00 -1.832843e+01 3.000000e+00
      vertex 5.908871e+00 -1.750000e+01 0.000000e+00
      vertex 6.544544e+00 -1.832843e+01 0.000000e+00
    endloop
  endfacet
  facet normal -8.660254e-01 -5.000000e-01 -2.329871e-19
    outer loop
      vertex 5.908871e+00 -1.750000e+01 0.000000e+00
      vertex 6.544544e+00 -1.832843e+01 3.000000e+00
      vertex 5.908871e+00 -1.750000e+01 3.000000e+00
    endloop
  endfacet
  facet normal -5.000000e-01 -8.660254e-01 0.000000e+00
    outer loop
      vertex 7.372974e+00 -1.896410e+01 0.000000e+00
      vertex 6.544544e+00 -1.832843e+01 3.000000e+00
      vertex 6.544544e+00 -1.832843e+01 0.000000e+00
    endloop
  endfacet
  facet normal -7.071068e-01 -7.071068e-01 0.000000e+00
    outer loop
      vertex 6.544544e+00 -1.832843e+01 3.000000e+00
      vertex 7.372974e+00 -1.896410e+01 0.000000e+00
      vertex 7.372974e+00 -1.896410e+01 3.000000e+00
    endloop
  endfacet
  facet normal -2.588190e-01 -9.659258e-01 0.000000e+00
    outer loop
      vertex 8.337696e+00 -1.936370e+01 0.000000e+00
      vertex 7.372974e+00 -1.896410e+01 3.000000e+00
      vertex 7.372974e+00 -1.896410e+01 0.000000e+00
    endloop
  endfacet
  facet normal -5.000000e-01 -8.660254e-01 0.000000e+00
    outer loop
      vertex 7.372974e+00 -1.896410e+01 3.000000e+00
      vertex 8.337696e+00 -1.936370e+01 0.000000e+00
      vertex 8.337696e+00 -1.936370e+01 3.000000e+00
    endloop
  endfacet
  facet normal 9.231965e-18 -1.000000e+00 0.000000e+00
    outer loop
      vertex 9.372974e+00 -1.950000e+01 0.000000e+00
      vertex 8.337696e+00 -1.936370e+01 3.000000e+00
      vertex 8.337696e+00 -1.936370e+01 0.000000e+00
    endloop
  endfacet
  facet normal -2.588190e-01 -9.659258e-01 0.000000e+00
    outer loop
      vertex 8.337696e+00 -1.936370e+01 3.000000e+00
      vertex 9.372974e+00 -1.950000e+01 0.000000e+00
      vertex 9.372974e+00 -1.950000e+01 3.000000e+00
    endloop
  endfacet
  facet normal 2.588190e-01 -9.659258e-01 0.000000e+00
    outer loop
      vertex 1.040825e+01 -1.936370e+01 0.000000e+00
      vertex 9.372974e+00 -1.950000e+01 3.000000e+00
      vertex 9.372974e+00 -1.950000e+01 0.000000e+00
    endloop
  endfacet
  facet normal 9.231965e-18 -1.000000e+00 0.000000e+00
    outer loop
      vertex 9.372974e+00 -1.950000e+01 3.000000e+00
      vertex 1.040825e+01 -1.936370e+01 0.000000e+00
      vertex 1.040825e+01 -1.936370e+01 3.000000e+00
    endloop
  endfacet
  facet normal 5.000000e-01 -8.660254e-01 0.000000e+00
    outer loop
      vertex 1.137297e+01 -1.896410e+01 0.000000e+00
      vertex 1.040825e+01 -1.936370e+01 3.000000e+00
      vertex 1.040825e+01 -1.936370e+01 0.000000e+00
    endloop
  endfacet
  facet normal 2.588190e-01 -9.659258e-01 0.000000e+00
    outer loop
      vertex 1.040825e+01 -1.936370e+01 3.000000e+00
      vertex 1.137297e+01 -1.896410e+01 0.000000e+00
      vertex 1.137297e+01 -1.896410e+01 3.000000e+00
    endloop
  endfacet
  facet normal 7.071068e-01 -7.071068e-01 0.000000e+00
    outer loop
      vertex 1.220140e+01 -1.832843e+01 0.000000e+00
      vertex 1.137297e+01 -1.896410e+01 3.000000e+00
      vertex 1.137297e+01 -1.896410e+01 0.000000e+00
    endloop
  endfacet
  facet normal 5.000000e-01 -8.660254e-01 0.000000e+00
    outer loop
      vertex 1.137297e+01 -1.896410e+01 3.000000e+00
      vertex 1.220140e+01 -1.832843e+01 0.000000e+00
      vertex 1.220140e+01 -1.832843e+01 3.000000e+00
    endloop
  endfacet
  facet normal 8.660254e-01 -5.000000e-01 2.714991e-16
    outer loop
      vertex 1.283707e+01 -1.750000e+01 3.000000e+00
      vertex 1.220140e+01 -1.832843e+01 0.000000e+00
      vertex 1.283707e+01 -1.750000e+01 0.000000e+00
    endloop
  endfacet
  facet normal 7.071068e-01 -7.071068e-01 0.000000e+00
    outer loop
      vertex 1.220140e+01 -1.832843e+01 0.000000e+00
      vertex 1.283707e+01 -1.750000e+01 3.000000e+00
      vertex 1.220140e+01 -1.832843e+01 3.000000e+00
    endloop
  endfacet
  facet normal 9.238795e-01 -3.826834e-01 5.383529e-16
    outer loop
      vertex 1.312703e+01 -1.680000e+01 3.000000e+00
      vertex 1.283707e+01 -1.750000e+01 0.000000e+00
      vertex 1.312703e+01 -1.680000e+01 0.000000e+00
    endloop
  endfacet
  facet normal 8.660254e-01 -5.000000e-01 2.714991e-16
    outer loop
      vertex 1.283707e+01 -1.750000e+01 0.000000e+00
      vertex 1.312703e+01 -1.680000e+01 3.000000e+00
      vertex 1.283707e+01 -1.750000e+01 3.000000e+00
    endloop
  endfacet
  facet normal -8.660254e-01 -5.000000e-01 0.000000e+00
    outer loop
      vertex 1.049881e+01 -1.485000e+01 3.000000e+00
      vertex 1.029221e+01 -1.458076e+01 0.000000e+00
      vertex 1.049881e+01 -1.485000e+01 0.000000e+00
    endloop
  endfacet
  facet normal -7.071068e-01 -7.071068e-01 0.000000e+00
    outer loop
      vertex 1.029221e+01 -1.458076e+01 0.000000e+00
      vertex 1.049881e+01 -1.485000e+01 3.000000e+00
      vertex 1.029221e+01 -1.458076e+01 3.000000e+00
    endloop
  endfacet
  facet normal -7.071068e-01 -7.071068e-01 0.000000e+00
    outer loop
      vertex 1.029221e+01 -1.458076e+01 0.000000e+00
      vertex 1.002297e+01 -1.437417e+01 3.000000e+00
      vertex 1.002297e+01 -1.437417e+01 0.000000e+00
    endloop
  endfacet
  facet normal -5.000000e-01 -8.660254e-01 0.000000e+00
    outer loop
      vertex 1.002297e+01 -1.437417e+01 3.000000e+00
      vertex 1.029221e+01 -1.458076e+01 0.000000e+00
      vertex 1.029221e+01 -1.458076e+01 3.000000e+00
    endloop
  endfacet
  facet normal -5.000000e-01 -8.660254e-01 0.000000e+00
    outer loop
      vertex 1.002297e+01 -1.437417e+01 0.000000e+00
      vertex 9.709438e+00 -1.424430e+01 3.000000e+00
      vertex 9.709438e+00 -1.424430e+01 0.000000e+00
    endloop
  endfacet
  facet normal -2.588190e-01 -9.659258e-01 0.000000e+00
    outer loop
      vertex 9.709438e+00 -1.424430e+01 3.000000e+00
      vertex 1.002297e+01 -1.437417e+01 0.000000e+00
      vertex 1.002297e+01 -1.437417e+01 3.000000e+00
    endloop
  endfacet
  facet normal -2.588190e-01 -9.659258e-01 0.000000e+00
    outer loop
      vertex 9.709438e+00 -1.424430e+01 0.000000e+00
      vertex 9.372974e+00 -1.420000e+01 3.000000e+00
      vertex 9.372974e+00 -1.420000e+01 0.000000e+00
    endloop
  endfacet
  facet normal 9.231965e-18 -1.000000e+00 0.000000e+00
    outer loop
      vertex 9.372974e+00 -1.420000e+01 3.000000e+00
      vertex 9.709438e+00 -1.424430e+01 0.000000e+00
      vertex 9.709438e+00 -1.424430e+01 3.000000e+00
    endloop
  endfacet
  facet normal 9.231965e-18 -1.000000e+00 0.000000e+00
    outer loop
      vertex 9.372974e+00 -1.420000e+01 0.000000e+00
      vertex 9.036510e+00 -1.424430e+01 3.000000e+00
      vertex 9.036510e+00 -1.424430e+01 0.000000e+00
    endloop
  endfacet
  facet normal 2.588190e-01 -9.659258e-01 0.000000e+00
    outer loop
      vertex 9.036510e+00 -1.424430e+01 3.000000e+00
      vertex 9.372974e+00 -1.420000e+01 0.000000e+00
      vertex 9.372974e+00 -1.420000e+01 3.000000e+00
    endloop
  endfacet
  facet normal 2.588190e-01 -9.659258e-01 0.000000e+00
    outer loop
      vertex 9.036510e+00 -1.424430e+01 0.000000e+00
      vertex 8.722973e+00 -1.437417e+01 3.000000e+00
      vertex 8.722973e+00 -1.437417e+01 0.000000e+00
    endloop
  endfacet
  facet normal 5.000000e-01 -8.660254e-01 0.000000e+00
    outer loop
      vertex 8.722973e+00 -1.437417e+01 3.000000e+00
      vertex 9.036510e+00 -1.424430e+01 0.000000e+00
      vertex 9.036510e+00 -1.424430e+01 3.000000e+00
    endloop
  endfacet
  facet normal 5.000000e-01 -8.660254e-01 0.000000e+00
    outer loop
      vertex 8.722973e+00 -1.437417e+01 0.000000e+00
      vertex 8.453732e+00 -1.458076e+01 3.000000e+00
      vertex 8.453732e+00 -1.458076e+01 0.000000e+00
    endloop
  endfacet
  facet normal 7.071068e-01 -7.071068e-01 0.000000e+00
    outer loop
      vertex 8.453732e+00 -1.458076e+01 3.000000e+00
      vertex 8.722973e+00 -1.437417e+01 0.000000e+00
      vertex 8.722973e+00 -1.437417e+01 3.000000e+00
    endloop
  endfacet
  facet normal 7.071068e-01 -7.071068e-01 0.000000e+00
    outer loop
      vertex 8.453732e+00 -1.458076e+01 3.000000e+00
      vertex 8.247135e+00 -1.485000e+01 0.000000e+00
      vertex 8.453732e+00 -1.458076e+01 0.000000e+00
    endloop
  endfacet
  facet normal 8.660254e-01 -5.000000e-01 0.000000e+00
    outer loop
      vertex 8.247135e+00 -1.485000e+01 0.000000e+00
      vertex 8.453732e+00 -1.458076e+01 3.000000e+00
      vertex 8.247135e+00 -1.485000e+01 3.000000e+00
    endloop
  endfacet
  facet normal 8.660254e-01 -5.000000e-01 0.000000e+00
    outer loop
      vertex 8.247135e+00 -1.485000e+01 3.000000e+00
      vertex 8.117268e+00 -1.516353e+01 0.000000e+00
      vertex 8.247135e+00 -1.485000e+01 0.000000e+00
    endloop
  endfacet
  facet normal 9.659258e-01 -2.588190e-01 0.000000e+00
    outer loop
      vertex 8.117268e+00 -1.516353e+01 0.000000e+00
      vertex 8.247135e+00 -1.485000e+01 3.000000e+00
      vertex 8.117268e+00 -1.516353e+01 3.000000e+00
    endloop
  endfacet
  facet normal 9.659258e-01 -2.588190e-01 0.000000e+00
    outer loop
      vertex 8.117268e+00 -1.516353e+01 3.000000e+00
      vertex 8.072971e+00 -1.550000e+01 0.000000e+00
      vertex 8.117268e+00 -1.516353e+01 0.000000e+00
    endloop
  endfacet
  facet normal 1.000000e+00 3.208556e-19 0.000000e+00
    outer loop
      vertex 8.072971e+00 -1.550000e+01 0.000000e+00
      vertex 8.117268e+00 -1.516353e+01 3.000000e+00
      vertex 8.072971e+00 -1.550000e+01 3.000000e+00
    endloop
  endfacet
  facet normal 1.000000e+00 3.208556e-19 0.000000e+00
    outer loop
      vertex 8.072971e+00 -1.550000e+01 3.000000e+00
      vertex 8.117268e+00 -1.583646e+01 0.000000e+00
      vertex 8.072971e+00 -1.550000e+01 0.000000e+00
    endloop
  endfacet
  facet normal 9.659258e-01 2.588190e-01 0.000000e+00
    outer loop
      vertex 8.117268e+00 -1.583646e+01 0.000000e+00
      vertex 8.072971e+00 -1.550000e+01 3.000000e+00
      vertex 8.117268e+00 -1.583646e+01 3.000000e+00
    endloop
  endfacet
  facet normal 9.659258e-01 2.588190e-01 0.000000e+00
    outer loop
      vertex 8.117268e+00 -1.583646e+01 3.000000e+00
      vertex 8.247135e+00 -1.615000e+01 0.000000e+00
      vertex 8.117268e+00 -1.583646e+01 0.000000e+00
    endloop
  endfacet
  facet normal 8.660254e-01 5.000000e-01 0.000000e+00
    outer loop
      vertex 8.247135e+00 -1.615000e+01 0.000000e+00
      vertex 8.117268e+00 -1.583646e+01 3.000000e+00
      vertex 8.247135e+00 -1.615000e+01 3.000000e+00
    endloop
  endfacet
  facet normal 8.660254e-01 5.000000e-01 0.000000e+00
    outer loop
      vertex 8.247135e+00 -1.615000e+01 3.000000e+00
      vertex 8.453732e+00 -1.641924e+01 0.000000e+00
      vertex 8.247135e+00 -1.615000e+01 0.000000e+00
    endloop
  endfacet
  facet normal 7.071068e-01 7.071068e-01 0.000000e+00
    outer loop
      vertex 8.453732e+00 -1.641924e+01 0.000000e+00
      vertex 8.247135e+00 -1.615000e+01 3.000000e+00
      vertex 8.453732e+00 -1.641924e+01 3.000000e+00
    endloop
  endfacet
  facet normal 5.000000e-01 8.660254e-01 0.000000e+00
    outer loop
      vertex 8.722973e+00 -1.662583e+01 3.000000e+00
      vertex 8.453732e+00 -1.641924e+01 0.000000e+00
      vertex 8.453732e+00 -1.641924e+01 3.000000e+00
    endloop
  endfacet
  facet normal 7.071068e-01 7.071068e-01 0.000000e+00
    outer loop
      vertex 8.453732e+00 -1.641924e+01 0.000000e+00
      vertex 8.722973e+00 -1.662583e+01 3.000000e+00
      vertex 8.722973e+00 -1.662583e+01 0.000000e+00
    endloop
  endfacet
  facet normal 2.588190e-01 9.659258e-01 0.000000e+00
    outer loop
      vertex 9.036510e+00 -1.675570e+01 3.000000e+00
      vertex 8.722973e+00 -1.662583e+01 0.000000e+00
      vertex 8.722973e+00 -1.662583e+01 3.000000e+00
    endloop
  endfacet
  facet normal 5.000000e-01 8.660254e-01 0.000000e+00
    outer loop
      vertex 8.722973e+00 -1.662583e+01 0.000000e+00
      vertex 9.036510e+00 -1.675570e+01 3.000000e+00
      vertex 9.036510e+00 -1.675570e+01 0.000000e+00
    endloop
  endfacet
  facet normal 8.590254e-18 1.000000e+00 0.000000e+00
    outer loop
      vertex 9.372974e+00 -1.680000e+01 3.000000e+00
      vertex 9.036510e+00 -1.675570e+01 0.000000e+00
      vertex 9.036510e+00 -1.675570e+01 3.000000e+00
    endloop
  endfacet
  facet normal 2.588190e-01 9.659258e-01 0.000000e+00
    outer loop
      vertex 9.036510e+00 -1.675570e+01 0.000000e+00
      vertex 9.372974e+00 -1.680000e+01 3.000000e+00
      vertex 9.372974e+00 -1.680000e+01 0.000000e+00
    endloop
  endfacet
  facet normal -2.588190e-01 9.659258e-01 0.000000e+00
    outer loop
      vertex 9.709438e+00 -1.675570e+01 3.000000e+00
      vertex 9.372974e+00 -1.680000e+01 0.000000e+00
      vertex 9.372974e+00 -1.680000e+01 3.000000e+00
    endloop
  endfacet
  facet normal 8.590254e-18 1.000000e+00 0.000000e+00
    outer loop
      vertex 9.372974e+00 -1.680000e+01 0.000000e+00
      vertex 9.709438e+00 -1.675570e+01 3.000000e+00
      vertex 9.709438e+00 -1.675570e+01 0.000000e+00
    endloop
  endfacet
  facet normal -5.000000e-01 8.660254e-01 0.000000e+00
    outer loop
      vertex 1.002297e+01 -1.662583e+01 3.000000e+00
      vertex 9.709438e+00 -1.675570e+01 0.000000e+00
      vertex 9.709438e+00 -1.675570e+01 3.000000e+00
    endloop
  endfacet
  facet normal -2.588190e-01 9.659258e-01 0.000000e+00
    outer loop
      vertex 9.709438e+00 -1.675570e+01 0.000000e+00
      vertex 1.002297e+01 -1.662583e+01 3.000000e+00
      vertex 1.002297e+01 -1.662583e+01 0.000000e+00
    endloop
  endfacet
  facet normal -7.071068e-01 7.071068e-01 0.000000e+00
    outer loop
      vertex 1.029221e+01 -1.641924e+01 3.000000e+00
      vertex 1.002297e+01 -1.662583e+01 0.000000e+00
      vertex 1.002297e+01 -1.662583e+01 3.000000e+00
    endloop
  endfacet
  facet normal -5.000000e-01 8.660254e-01 0.000000e+00
    outer loop
      vertex 1.002297e+01 -1.662583e+01 0.000000e+00
      vertex 1.029221e+01 -1.641924e+01 3.000000e+00
      vertex 1.029221e+01 -1.641924e+01 0.000000e+00
    endloop
  endfacet
  facet normal -7.071068e-01 7.071068e-01 0.000000e+00
    outer loop
      vertex 1.029221e+01 -1.641924e+01 3.000000e+00
      vertex 1.049881e+01 -1.615000e+01 0.000000e+00
      vertex 1.029221e+01 -1.641924e+01 0.000000e+00
    endloop
  endfacet
  facet normal -8.660254e-01 5.000000e-01 0.000000e+00
    outer loop
      vertex 1.049881e+01 -1.615000e+01 0.000000e+00
      vertex 1.029221e+01 -1.641924e+01 3.000000e+00
      vertex 1.049881e+01 -1.615000e+01 3.000000e+00
    endloop
  endfacet
  facet normal -8.660254e-01 5.000000e-01 0.000000e+00
    outer loop
      vertex 1.049881e+01 -1.615000e+01 3.000000e+00
      vertex 1.062867e+01 -1.583646e+01 0.000000e+00
      vertex 1.049881e+01 -1.615000e+01 0.000000e+00
    endloop
  endfacet
  facet normal -9.659258e-01 2.588190e-01 0.000000e+00
    outer loop
      vertex 1.062867e+01 -1.583646e+01 0.000000e+00
      vertex 1.049881e+01 -1.615000e+01 3.000000e+00
      vertex 1.062867e+01 -1.583646e+01 3.000000e+00
    endloop
  endfacet
  facet normal -9.659258e-01 2.588190e-01 0.000000e+00
    outer loop
      vertex 1.062867e+01 -1.583646e+01 3.000000e+00
      vertex 1.067297e+01 -1.550000e+01 0.000000e+00
      vertex 1.062867e+01 -1.583646e+01 0.000000e+00
    endloop
  endfacet
  facet normal -1.000000e+00 -3.208556e-19 0.000000e+00
    outer loop
      vertex 1.067297e+01 -1.550000e+01 0.000000e+00
      vertex 1.062867e+01 -1.583646e+01 3.000000e+00
      vertex 1.067297e+01 -1.550000e+01 3.000000e+00
    endloop
  endfacet
  facet normal -1.000000e+00 -3.208556e-19 0.000000e+00
    outer loop
      vertex 1.067297e+01 -1.550000e+01 3.000000e+00
      vertex 1.062867e+01 -1.516353e+01 0.000000e+00
      vertex 1.067297e+01 -1.550000e+01 0.000000e+00
    endloop
  endfacet
  facet normal -9.659258e-01 -2.588190e-01 0.000000e+00
    outer loop
      vertex 1.062867e+01 -1.516353e+01 0.000000e+00
      vertex 1.067297e+01 -1.550000e+01 3.000000e+00
      vertex 1.062867e+01 -1.516353e+01 3.000000e+00
    endloop
  endfacet
  facet normal -9.659258e-01 -2.588190e-01 0.000000e+00
    outer loop
      vertex 1.062867e+01 -1.516353e+01 3.000000e+00
      vertex 1.049881e+01 -1.485000e+01 0.000000e+00
      vertex 1.062867e+01 -1.516353e+01 0.000000e+00
    endloop
  endfacet
  facet normal -8.660254e-01 -5.000000e-01 0.000000e+00
    outer loop
      vertex 1.049881e+01 -1.485000e+01 0.000000e+00
      vertex 1.062867e+01 -1.516353e+01 3.000000e+00
      vertex 1.049881e+01 -1.485000e+01 3.000000e+00
    endloop
  endfacet
  facet normal -2.349805e-16 -5.662801e-16 -1.000000e+00
    outer loop
      vertex 1.312703e+01 -1.680000e+01 0.000000e+00
      vertex -1.312703e+01 1.950000e+01 0.000000e+00
      vertex 1.312703e+01 1.950000e+01 0.000000e+00
    endloop
  endfacet
  facet normal -2.349805e-16 -5.662801e-16 -1.000000e+00
    outer loop
      vertex -1.312703e+01 1.950000e+01 0.000000e+00
      vertex 1.312703e+01 -1.680000e+01 0.000000e+00
      vertex 1.029221e+01 -1.458076e+01 0.000000e+00
    endloop
  endfacet
  facet normal -2.349805e-16 -5.662801e-16 -1.000000e+00
    outer loop
      vertex -1.312703e+01 1.950000e+01 0.000000e+00
      vertex 1.029221e+01 -1.458076e+01 0.000000e+00
      vertex 1.002297e+01 -1.437417e+01 0.000000e+00
    endloop
  endfacet
  facet normal -2.349805e-16 -5.662801e-16 -1.000000e+00
    outer loop
      vertex -1.312703e+01 1.950000e+01 0.000000e+00
      vertex 1.002297e+01 -1.437417e+01 0.000000e+00
      vertex 9.709438e+00 -1.424430e+01 0.000000e+00
    endloop
  endfacet
  facet normal -2.349805e-16 -5.662801e-16 -1.000000e+00
    outer loop
      vertex -1.312703e+01 1.950000e+01 0.000000e+00
      vertex 9.709438e+00 -1.424430e+01 0.000000e+00
      vertex 9.372974e+00 -1.420000e+01 0.000000e+00
    endloop
  endfacet
  facet normal -2.349805e-16 -5.662801e-16 -1.000000e+00
    outer loop
      vertex 1.029221e+01 -1.458076e+01 0.000000e+00
      vertex 1.312703e+01 -1.680000e+01 0.000000e+00
      vertex 1.049881e+01 -1.485000e+01 0.000000e+00
    endloop
  endfacet
  facet normal -2.349805e-16 -5.662801e-16 -1.000000e+00
    outer loop
      vertex 1.049881e+01 -1.485000e+01 0.000000e+00
      vertex 1.312703e+01 -1.680000e+01 0.000000e+00
      vertex 1.062867e+01 -1.516353e+01 0.000000e+00
    endloop
  endfacet
  facet normal -2.349805e-16 -5.662801e-16 -1.000000e+00
    outer loop
      vertex 1.062867e+01 -1.516353e+01 0.000000e+00
      vertex 1.312703e+01 -1.680000e+01 0.000000e+00
      vertex 1.067297e+01 -1.550000e+01 0.000000e+00
    endloop
  endfacet
  facet normal -2.349805e-16 -5.662801e-16 -1.000000e+00
    outer loop
      vertex 1.067297e+01 -1.550000e+01 0.000000e+00
      vertex 1.312703e+01 -1.680000e+01 0.000000e+00
      vertex 1.062867e+01 -1.583646e+01 0.000000e+00
    endloop
  endfacet
  facet normal -2.349805e-16 -5.662801e-16 -1.000000e+00
    outer loop
      vertex 1.062867e+01 -1.583646e+01 0.000000e+00
      vertex 1.312703e+01 -1.680000e+01 0.000000e+00
      vertex 1.049881e+01 -1.615000e+01 0.000000e+00
    endloop
  endfacet
  facet normal -2.349805e-16 -5.662801e-16 -1.000000e+00
    outer loop
      vertex 1.049881e+01 -1.615000e+01 0.000000e+00
      vertex 1.312703e+01 -1.680000e+01 0.000000e+00
      vertex 1.029221e+01 -1.641924e+01 0.000000e+00
    endloop
  endfacet
  facet normal -2.349805e-16 -5.662801e-16 -1.000000e+00
    outer loop
      vertex 1.029221e+01 -1.641924e+01 0.000000e+00
      vertex 1.312703e+01 -1.680000e+01 0.000000e+00
      vertex 1.002297e+01 -1.662583e+01 0.000000e+00
    endloop
  endfacet
  facet normal -2.349805e-16 -5.662801e-16 -1.000000e+00
    outer loop
      vertex 1.002297e+01 -1.662583e+01 0.000000e+00
      vertex 1.312703e+01 -1.680000e+01 0.000000e+00
      vertex 9.709438e+00 -1.675570e+01 0.000000e+00
    endloop
  endfacet
  facet normal -2.349805e-16 -5.662801e-16 -1.000000e+00
    outer loop
      vertex 9.709438e+00 -1.675570e+01 0.000000e+00
      vertex 1.312703e+01 -1.680000e+01 0.000000e+00
      vertex 9.372974e+00 -1.680000e+01 0.000000e+00
    endloop
  endfacet
  facet normal -2.349805e-16 -5.662801e-16 -1.000000e+00
    outer loop
      vertex 9.372974e+00 -1.680000e+01 0.000000e+00
      vertex 1.312703e+01 -1.680000e+01 0.000000e+00
      vertex -1.312703e+01 -1.680000e+01 0.000000e+00
    endloop
  endfacet
  facet normal -2.349805e-16 -5.662801e-16 -1.000000e+00
    outer loop
      vertex -1.312703e+01 -1.680000e+01 0.000000e+00
      vertex 1.312703e+01 -1.680000e+01 0.000000e+00
      vertex 5.618923e+00 -1.680000e+01 0.000000e+00
    endloop
  endfacet
  facet normal -2.349805e-16 -5.662801e-16 -1.000000e+00
    outer loop
      vertex 5.618923e+00 -1.680000e+01 0.000000e+00
      vertex 1.312703e+01 -1.680000e+01 0.000000e+00
      vertex 1.283707e+01 -1.750000e+01 0.000000e+00
    endloop
  endfacet
  facet normal -2.349805e-16 -5.662801e-16 -1.000000e+00
    outer loop
      vertex 5.618923e+00 -1.680000e+01 0.000000e+00
      vertex 1.283707e+01 -1.750000e+01 0.000000e+00
      vertex 5.908871e+00 -1.750000e+01 0.000000e+00
    endloop
  endfacet
  facet normal -2.349805e-16 -5.662801e-16 -1.000000e+00
    outer loop
      vertex 5.908871e+00 -1.750000e+01 0.000000e+00
      vertex 1.283707e+01 -1.750000e+01 0.000000e+00
      vertex 1.220140e+01 -1.832843e+01 0.000000e+00
    endloop
  endfacet
  facet normal -2.349805e-16 -5.662801e-16 -1.000000e+00
    outer loop
      vertex 5.908871e+00 -1.750000e+01 0.000000e+00
      vertex 1.220140e+01 -1.832843e+01 0.000000e+00
      vertex 6.544544e+00 -1.832843e+01 0.000000e+00
    endloop
  endfacet
  facet normal -2.349805e-16 -5.662801e-16 -1.000000e+00
    outer loop
      vertex 6.544544e+00 -1.832843e+01 0.000000e+00
      vertex 1.220140e+01 -1.832843e+01 0.000000e+00
      vertex 1.137297e+01 -1.896410e+01 0.000000e+00
    endloop
  endfacet
  facet normal -2.349805e-16 -5.662801e-16 -1.000000e+00
    outer loop
      vertex 6.544544e+00 -1.832843e+01 0.000000e+00
      vertex 1.137297e+01 -1.896410e+01 0.000000e+00
      vertex 7.372974e+00 -1.896410e+01 0.000000e+00
    endloop
  endfacet
  facet normal -2.349805e-16 -5.662801e-16 -1.000000e+00
    outer loop
      vertex 7.372974e+00 -1.896410e+01 0.000000e+00
      vertex 1.137297e+01 -1.896410e+01 0.000000e+00
      vertex 1.040825e+01 -1.936370e+01 0.000000e+00
    endloop
  endfacet
  facet normal -2.349805e-16 -5.662801e-16 -1.000000e+00
    outer loop
      vertex 7.372974e+00 -1.896410e+01 0.000000e+00
      vertex 1.040825e+01 -1.936370e+01 0.000000e+00
      vertex 8.337696e+00 -1.936370e+01 0.000000e+00
    endloop
  endfacet
  facet normal -2.349805e-16 -5.662801e-16 -1.000000e+00
    outer loop
      vertex 8.337696e+00 -1.936370e+01 0.000000e+00
      vertex 1.040825e+01 -1.936370e+01 0.000000e+00
      vertex 9.372974e+00 -1.950000e+01 0.000000e+00
    endloop
  endfacet
  facet normal -2.349805e-16 -5.662801e-16 -1.000000e+00
    outer loop
      vertex 9.372974e+00 -1.420000e+01 0.000000e+00
      vertex -1.312703e+01 -1.680000e+01 0.000000e+00
      vertex -1.312703e+01 1.950000e+01 0.000000e+00
    endloop
  endfacet
  facet normal -2.349805e-16 -5.662801e-16 -1.000000e+00
    outer loop
      vertex -1.312703e+01 -1.680000e+01 0.000000e+00
      vertex 9.372974e+00 -1.420000e+01 0.000000e+00
      vertex 9.036510e+00 -1.424430e+01 0.000000e+00
    endloop
  endfacet
  facet normal -2.349805e-16 -5.662801e-16 -1.000000e+00
    outer loop
      vertex -1.312703e+01 -1.680000e+01 0.000000e+00
      vertex 9.036510e+00 -1.424430e+01 0.000000e+00
      vertex 8.722973e+00 -1.437417e+01 0.000000e+00
    endloop
  endfacet
  facet normal -2.349805e-16 -5.662801e-16 -1.000000e+00
    outer loop
      vertex -1.312703e+01 -1.680000e+01 0.000000e+00
      vertex 8.722973e+00 -1.437417e+01 0.000000e+00
      vertex 8.453732e+00 -1.458076e+01 0.000000e+00
    endloop
  endfacet
  facet normal -2.349805e-16 -5.662801e-16 -1.000000e+00
    outer loop
      vertex -1.312703e+01 -1.680000e+01 0.000000e+00
      vertex 8.453732e+00 -1.458076e+01 0.000000e+00
      vertex 8.247135e+00 -1.485000e+01 0.000000e+00
    endloop
  endfacet
  facet normal -2.349805e-16 -5.662801e-16 -1.000000e+00
    outer loop
      vertex -1.312703e+01 -1.680000e+01 0.000000e+00
      vertex 8.247135e+00 -1.485000e+01 0.000000e+00
      vertex 8.117268e+00 -1.516353e+01 0.000000e+00
    endloop
  endfacet
  facet normal -2.349805e-16 -5.662801e-16 -1.000000e+00
    outer loop
      vertex -1.312703e+01 -1.680000e+01 0.000000e+00
      vertex 8.117268e+00 -1.516353e+01 0.000000e+00
      vertex 8.072971e+00 -1.550000e+01 0.000000e+00
    endloop
  endfacet
  facet normal -2.349805e-16 -5.662801e-16 -1.000000e+00
    outer loop
      vertex -1.312703e+01 -1.680000e+01 0.000000e+00
      vertex 8.072971e+00 -1.550000e+01 0.000000e+00
      vertex 8.117268e+00 -1.583646e+01 0.000000e+00
    endloop
  endfacet
  facet normal -2.349805e-16 -5.662801e-16 -1.000000e+00
    outer loop
      vertex -1.312703e+01 -1.680000e+01 0.000000e+00
      vertex 8.117268e+00 -1.583646e+01 0.000000e+00
      vertex 8.247135e+00 -1.615000e+01 0.000000e+00
    endloop
  endfacet
  facet normal -2.349805e-16 -5.662801e-16 -1.000000e+00
    outer loop
      vertex -1.312703e+01 -1.680000e+01 0.000000e+00
      vertex 8.247135e+00 -1.615000e+01 0.000000e+00
      vertex 8.453732e+00 -1.641924e+01 0.000000e+00
    endloop
  endfacet
  facet normal -2.349805e-16 -5.662801e-16 -1.000000e+00
    outer loop
      vertex -1.312703e+01 -1.680000e+01 0.000000e+00
      vertex 8.453732e+00 -1.641924e+01 0.000000e+00
      vertex 8.722973e+00 -1.662583e+01 0.000000e+00
    endloop
  endfacet
  facet normal -2.349805e-16 -5.662801e-16 -1.000000e+00
    outer loop
      vertex -1.312703e+01 -1.680000e+01 0.000000e+00
      vertex 8.722973e+00 -1.662583e+01 0.000000e+00
      vertex 9.036510e+00 -1.675570e+01 0.000000e+00
    endloop
  endfacet
  facet normal -2.349805e-16 -5.662801e-16 -1.000000e+00
    outer loop
      vertex -1.312703e+01 -1.680000e+01 0.000000e+00
      vertex 9.036510e+00 -1.675570e+01 0.000000e+00
      vertex 9.372974e+00 -1.680000e+01 0.000000e+00
    endloop
  endfacet
  facet normal -6.448623e-16 -1.000000e+00 -5.262483e-32
    outer loop
      vertex 5.618923e+00 -1.680000e+01 0.000000e+00
      vertex -1.312703e+01 -1.680000e+01 6.000000e+00
      vertex -1.312703e+01 -1.680000e+01 0.000000e+00
    endloop
  endfacet
  facet normal -6.448623e-16 -1.000000e+00 -5.262483e-32
    outer loop
      vertex -1.312703e+01 -1.680000e+01 6.000000e+00
      vertex 5.618923e+00 -1.680000e+01 0.000000e+00
      vertex 5.618923e+00 -1.680000e+01 6.000000e+00
    endloop
  endfacet
  facet normal -6.448623e-16 -1.000000e+00 -5.262483e-32
    outer loop
      vertex 5.618923e+00 -1.680000e+01 6.000000e+00
      vertex 5.618923e+00 -1.680000e+01 0.000000e+00
      vertex 5.618923e+00 -1.680000e+01 3.000000e+00
    endloop
  endfacet
  facet normal 2.520647e-16 6.339451e-16 1.000000e+00
    outer loop
      vertex 5.618923e+00 -1.420000e+01 3.000000e+00
      vertex 9.036510e+00 -1.424430e+01 3.000000e+00
      vertex 9.372974e+00 -1.420000e+01 3.000000e+00
    endloop
  endfacet
  facet normal 2.520647e-16 6.339451e-16 1.000000e+00
    outer loop
      vertex 9.036510e+00 -1.424430e+01 3.000000e+00
      vertex 5.618923e+00 -1.420000e+01 3.000000e+00
      vertex 8.722973e+00 -1.437417e+01 3.000000e+00
    endloop
  endfacet
  facet normal 2.520647e-16 6.339451e-16 1.000000e+00
    outer loop
      vertex 8.722973e+00 -1.437417e+01 3.000000e+00
      vertex 5.618923e+00 -1.420000e+01 3.000000e+00
      vertex 8.453732e+00 -1.458076e+01 3.000000e+00
    endloop
  endfacet
  facet normal 2.520647e-16 6.339451e-16 1.000000e+00
    outer loop
      vertex 8.453732e+00 -1.458076e+01 3.000000e+00
      vertex 5.618923e+00 -1.420000e+01 3.000000e+00
      vertex 5.618923e+00 -1.680000e+01 3.000000e+00
    endloop
  endfacet
  facet normal 2.520647e-16 6.339451e-16 1.000000e+00
    outer loop
      vertex 8.453732e+00 -1.458076e+01 3.000000e+00
      vertex 5.618923e+00 -1.680000e+01 3.000000e+00
      vertex 8.247135e+00 -1.485000e+01 3.000000e+00
    endloop
  endfacet
  facet normal 2.520647e-16 6.339451e-16 1.000000e+00
    outer loop
      vertex 8.247135e+00 -1.485000e+01 3.000000e+00
      vertex 5.618923e+00 -1.680000e+01 3.000000e+00
      vertex 8.117268e+00 -1.516353e+01 3.000000e+00
    endloop
  endfacet
  facet normal 2.520647e-16 6.339451e-16 1.000000e+00
    outer loop
      vertex 8.117268e+00 -1.516353e+01 3.000000e+00
      vertex 5.618923e+00 -1.680000e+01 3.000000e+00
      vertex 8.072971e+00 -1.550000e+01 3.000000e+00
    endloop
  endfacet
  facet normal 2.520647e-16 6.339451e-16 1.000000e+00
    outer loop
      vertex 8.072971e+00 -1.550000e+01 3.000000e+00
      vertex 5.618923e+00 -1.680000e+01 3.000000e+00
      vertex 8.117268e+00 -1.583646e+01 3.000000e+00
    endloop
  endfacet
  facet normal 2.520647e-16 6.339451e-16 1.000000e+00
    outer loop
      vertex 8.117268e+00 -1.583646e+01 3.000000e+00
      vertex 5.618923e+00 -1.680000e+01 3.000000e+00
      vertex 8.247135e+00 -1.615000e+01 3.000000e+00
    endloop
  endfacet
  facet normal 2.520647e-16 6.339451e-16 1.000000e+00
    outer loop
      vertex 8.247135e+00 -1.615000e+01 3.000000e+00
      vertex 5.618923e+00 -1.680000e+01 3.000000e+00
      vertex 8.453732e+00 -1.641924e+01 3.000000e+00
    endloop
  endfacet
  facet normal 2.520647e-16 6.339451e-16 1.000000e+00
    outer loop
      vertex 8.453732e+00 -1.641924e+01 3.000000e+00
      vertex 5.618923e+00 -1.680000e+01 3.000000e+00
      vertex 8.722973e+00 -1.662583e+01 3.000000e+00
    endloop
  endfacet
  facet normal 2.520647e-16 6.339451e-16 1.000000e+00
    outer loop
      vertex 8.722973e+00 -1.662583e+01 3.000000e+00
      vertex 5.618923e+00 -1.680000e+01 3.000000e+00
      vertex 9.036510e+00 -1.675570e+01 3.000000e+00
    endloop
  endfacet
  facet normal 2.520647e-16 6.339451e-16 1.000000e+00
    outer loop
      vertex 9.036510e+00 -1.675570e+01 3.000000e+00
      vertex 5.618923e+00 -1.680000e+01 3.000000e+00
      vertex 9.372974e+00 -1.680000e+01 3.000000e+00
    endloop
  endfacet
  facet normal 2.520647e-16 6.339451e-16 1.000000e+00
    outer loop
      vertex 9.372974e+00 -1.680000e+01 3.000000e+00
      vertex 5.618923e+00 -1.680000e+01 3.000000e+00
      vertex 1.312703e+01 -1.680000e+01 3.000000e+00
    endloop
  endfacet
  facet normal 2.520647e-16 6.339451e-16 1.000000e+00
    outer loop
      vertex 1.312703e+01 -1.680000e+01 3.000000e+00
      vertex 5.618923e+00 -1.680000e+01 3.000000e+00
      vertex 1.283707e+01 -1.750000e+01 3.000000e+00
    endloop
  endfacet
  facet normal 2.520647e-16 6.339451e-16 1.000000e+00
    outer loop
      vertex 1.283707e+01 -1.750000e+01 3.000000e+00
      vertex 5.618923e+00 -1.680000e+01 3.000000e+00
      vertex 5.908871e+00 -1.750000e+01 3.000000e+00
    endloop
  endfacet
  facet normal 2.520647e-16 6.339451e-16 1.000000e+00
    outer loop
      vertex 1.283707e+01 -1.750000e+01 3.000000e+00
      vertex 5.908871e+00 -1.750000e+01 3.000000e+00
      vertex 1.220140e+01 -1.832843e+01 3.000000e+00
    endloop
  endfacet
  facet normal 2.520647e-16 6.339451e-16 1.000000e+00
    outer loop
      vertex 1.220140e+01 -1.832843e+01 3.000000e+00
      vertex 5.908871e+00 -1.750000e+01 3.000000e+00
      vertex 6.544544e+00 -1.832843e+01 3.000000e+00
    endloop
  endfacet
  facet normal 2.520647e-16 6.339451e-16 1.000000e+00
    outer loop
      vertex 1.220140e+01 -1.832843e+01 3.000000e+00
      vertex 6.544544e+00 -1.832843e+01 3.000000e+00
      vertex 1.137297e+01 -1.896410e+01 3.000000e+00
    endloop
  endfacet
  facet normal 2.520647e-16 6.339451e-16 1.000000e+00
    outer loop
      vertex 1.137297e+01 -1.896410e+01 3.000000e+00
      vertex 6.544544e+00 -1.832843e+01 3.000000e+00
      vertex 7.372974e+00 -1.896410e+01 3.000000e+00
    endloop
  endfacet
  facet normal 2.520647e-16 6.339451e-16 1.000000e+00
    outer loop
      vertex 1.137297e+01 -1.896410e+01 3.000000e+00
      vertex 7.372974e+00 -1.896410e+01 3.000000e+00
      vertex 1.040825e+01 -1.936370e+01 3.000000e+00
    endloop
  endfacet
  facet normal 2.520647e-16 6.339451e-16 1.000000e+00
    outer loop
      vertex 1.040825e+01 -1.936370e+01 3.000000e+00
      vertex 7.372974e+00 -1.896410e+01 3.000000e+00
      vertex 8.337696e+00 -1.936370e+01 3.000000e+00
    endloop
  endfacet
  facet normal 2.520647e-16 6.339451e-16 1.000000e+00
    outer loop
      vertex 1.040825e+01 -1.936370e+01 3.000000e+00
      vertex 8.337696e+00 -1.936370e+01 3.000000e+00
      vertex 9.372974e+00 -1.950000e+01 3.000000e+00
    endloop
  endfacet
  facet normal 2.520647e-16 6.339451e-16 1.000000e+00
    outer loop
      vertex -1.312703e+01 1.950000e+01 3.000000e+00
      vertex 1.312703e+01 -1.680000e+01 3.000000e+00
      vertex 1.312703e+01 1.950000e+01 3.000000e+00
    endloop
  endfacet
  facet normal 2.520647e-16 6.339451e-16 1.000000e+00
    outer loop
      vertex 1.312703e+01 -1.680000e+01 3.000000e+00
      vertex -1.312703e+01 1.950000e+01 3.000000e+00
      vertex 1.029221e+01 -1.458076e+01 3.000000e+00
    endloop
  endfacet
  facet normal 2.520647e-16 6.339451e-16 1.000000e+00
    outer loop
      vertex 1.029221e+01 -1.458076e+01 3.000000e+00
      vertex -1.312703e+01 1.950000e+01 3.000000e+00
      vertex 1.002297e+01 -1.437417e+01 3.000000e+00
    endloop
  endfacet
  facet normal 2.520647e-16 6.339451e-16 1.000000e+00
    outer loop
      vertex 1.002297e+01 -1.437417e+01 3.000000e+00
      vertex -1.312703e+01 1.950000e+01 3.000000e+00
      vertex 9.709438e+00 -1.424430e+01 3.000000e+00
    endloop
  endfacet
  facet normal 2.520647e-16 6.339451e-16 1.000000e+00
    outer loop
      vertex 9.709438e+00 -1.424430e+01 3.000000e+00
      vertex -1.312703e+01 1.950000e+01 3.000000e+00
      vertex 9.372974e+00 -1.420000e+01 3.000000e+00
    endloop
  endfacet
  facet normal 2.520647e-16 6.339451e-16 1.000000e+00
    outer loop
      vertex 9.372974e+00 -1.420000e+01 3.000000e+00
      vertex -1.312703e+01 1.950000e+01 3.000000e+00
      vertex -1.312703e+01 -1.420000e+01 3.000000e+00
    endloop
  endfacet
  facet normal 2.520647e-16 6.339451e-16 1.000000e+00
    outer loop
      vertex 9.372974e+00 -1.420000e+01 3.000000e+00
      vertex -1.312703e+01 -1.420000e+01 3.000000e+00
      vertex 5.618923e+00 -1.420000e+01 3.000000e+00
    endloop
  endfacet
  facet normal 2.520647e-16 6.339451e-16 1.000000e+00
    outer loop
      vertex 1.312703e+01 -1.680000e+01 3.000000e+00
      vertex 1.029221e+01 -1.458076e+01 3.000000e+00
      vertex 1.049881e+01 -1.485000e+01 3.000000e+00
    endloop
  endfacet
  facet normal 2.520647e-16 6.339451e-16 1.000000e+00
    outer loop
      vertex 1.312703e+01 -1.680000e+01 3.000000e+00
      vertex 1.049881e+01 -1.485000e+01 3.000000e+00
      vertex 1.062867e+01 -1.516353e+01 3.000000e+00
    endloop
  endfacet
  facet normal 2.520647e-16 6.339451e-16 1.000000e+00
    outer loop
      vertex 1.312703e+01 -1.680000e+01 3.000000e+00
      vertex 1.062867e+01 -1.516353e+01 3.000000e+00
      vertex 1.067297e+01 -1.550000e+01 3.000000e+00
    endloop
  endfacet
  facet normal 2.520647e-16 6.339451e-16 1.000000e+00
    outer loop
      vertex 1.312703e+01 -1.680000e+01 3.000000e+00
      vertex 1.067297e+01 -1.550000e+01 3.000000e+00
      vertex 1.062867e+01 -1.583646e+01 3.000000e+00
    endloop
  endfacet
  facet normal 2.520647e-16 6.339451e-16 1.000000e+00
    outer loop
      vertex 1.312703e+01 -1.680000e+01 3.000000e+00
      vertex 1.062867e+01 -1.583646e+01 3.000000e+00
      vertex 1.049881e+01 -1.615000e+01 3.000000e+00
    endloop
  endfacet
  facet normal 2.520647e-16 6.339451e-16 1.000000e+00
    outer loop
      vertex 1.312703e+01 -1.680000e+01 3.000000e+00
      vertex 1.049881e+01 -1.615000e+01 3.000000e+00
      vertex 1.029221e+01 -1.641924e+01 3.000000e+00
    endloop
  endfacet
  facet normal 2.520647e-16 6.339451e-16 1.000000e+00
    outer loop
      vertex 1.312703e+01 -1.680000e+01 3.000000e+00
      vertex 1.029221e+01 -1.641924e+01 3.000000e+00
      vertex 1.002297e+01 -1.662583e+01 3.000000e+00
    endloop
  endfacet
  facet normal 2.520647e-16 6.339451e-16 1.000000e+00
    outer loop
      vertex 1.312703e+01 -1.680000e+01 3.000000e+00
      vertex 1.002297e+01 -1.662583e+01 3.000000e+00
      vertex 9.709438e+00 -1.675570e+01 3.000000e+00
    endloop
  endfacet
  facet normal 2.520647e-16 6.339451e-16 1.000000e+00
    outer loop
      vertex 1.312703e+01 -1.680000e+01 3.000000e+00
      vertex 9.709438e+00 -1.675570e+01 3.000000e+00
      vertex 9.372974e+00 -1.680000e+01 3.000000e+00
    endloop
  endfacet
  facet normal -1.128509e-15 -9.490271e-16 1.000000e+00
    outer loop
      vertex -1.312703e+01 -1.680000e+01 6.000000e+00
      vertex 5.618923e+00 -1.420000e+01 6.000000e+00
      vertex -1.312703e+01 -1.420000e+01 6.000000e+00
    endloop
  endfacet
  facet normal -1.128509e-15 -9.490271e-16 1.000000e+00
    outer loop
      vertex 5.618923e+00 -1.420000e+01 6.000000e+00
      vertex -1.312703e+01 -1.680000e+01 6.000000e+00
      vertex 5.618923e+00 -1.680000e+01 6.000000e+00
    endloop
  endfacet
  facet normal 1.000000e+00 6.409495e-31 1.128509e-15
    outer loop
      vertex 5.618923e+00 -1.420000e+01 6.000000e+00
      vertex 5.618923e+00 -1.680000e+01 3.000000e+00
      vertex 5.618923e+00 -1.420000e+01 3.000000e+00
    endloop
  endfacet
  facet normal 1.000000e+00 6.409495e-31 1.128509e-15
    outer loop
      vertex 5.618923e+00 -1.680000e+01 3.000000e+00
      vertex 5.618923e+00 -1.420000e+01 6.000000e+00
      vertex 5.618923e+00 -1.680000e+01 6.000000e+00
    endloop
  endfacet
  facet normal 3.224312e-16 1.000000e+00 9.490271e-16
    outer loop
      vertex 5.618923e+00 -1.420000e+01 6.000000e+00
      vertex -1.312703e+01 -1.420000e+01 3.000000e+00
      vertex -1.312703e+01 -1.420000e+01 6.000000e+00
    endloop
  endfacet
  facet normal 3.224312e-16 1.000000e+00 9.490271e-16
    outer loop
      vertex -1.312703e+01 -1.420000e+01 3.000000e+00
      vertex 5.618923e+00 -1.420000e+01 6.000000e+00
      vertex 5.618923e+00 -1.420000e+01 3.000000e+00
    endloop
  endfacet
  facet normal 1.000000e+00 -1.864441e-15 2.409076e-30
    outer loop
      vertex 1.312703e+01 1.950000e+01 0.000000e+00
      vertex 1.312703e+01 -1.680000e+01 3.000000e+00
      vertex 1.312703e+01 -1.680000e+01 0.000000e+00
    endloop
  endfacet
  facet normal 1.000000e+00 -1.864441e-15 2.409076e-30
    outer loop
      vertex 1.312703e+01 -1.680000e+01 3.000000e+00
      vertex 1.312703e+01 1.950000e+01 0.000000e+00
      vertex 1.312703e+01 1.950000e+01 3.000000e+00
    endloop
  endfacet
endsolid Default
